<svg width="35" height="35" viewBox="0 0 35 35" fill="none" xmlns="http://www.w3.org/2000/svg">
<circle cx="17.5" cy="17.5" r="17.5" fill="#3A0CA3"/>
<path d="M22.7077 23.4631V26H10.8072V23.9935L17.2187 17.9049C17.9414 17.213 18.4257 16.6133 18.6717 16.106C18.9331 15.5832 19.0638 15.0681 19.0638 14.5607C19.0638 13.8073 18.8101 13.2308 18.3027 12.831C17.7953 12.4312 17.0496 12.2314 16.0656 12.2314C14.4204 12.2314 13.1596 12.7926 12.2832 13.915L10.1845 12.3006C10.8149 11.4549 11.6605 10.8015 12.7214 10.3402C13.7977 9.86356 14.997 9.62524 16.3193 9.62524C18.0721 9.62524 19.4712 10.0404 20.5167 10.8706C21.5623 11.7009 22.085 12.831 22.085 14.2609C22.085 15.1373 21.9005 15.9599 21.5315 16.7287C21.1625 17.4974 20.4552 18.3738 19.4097 19.3578L15.0969 23.4631H22.7077Z" fill="white"/>
</svg>
