<svg width="21" height="21" viewBox="0 0 21 21" fill="none" xmlns="http://www.w3.org/2000/svg">
<path d="M20.1 1.59415V18.7383C20.1 19.1302 19.9443 19.5062 19.6671 19.7833C19.39 20.0605 19.014 20.2162 18.6221 20.2162H1.47794C1.08597 20.2162 0.710047 20.0605 0.432879 19.7833C0.155711 19.5062 0 19.1302 0 18.7383L0 1.59415C0 1.20218 0.155711 0.826258 0.432879 0.54909C0.710047 0.271922 1.08597 0.116211 1.47794 0.116211L18.6221 0.116211C19.014 0.116211 19.39 0.271922 19.6671 0.54909C19.9443 0.826258 20.1 1.20218 20.1 1.59415ZM5.91177 7.80151H2.95588V17.2603H5.91177V7.80151ZM6.17779 4.55003C6.17935 4.32645 6.13686 4.10474 6.05273 3.89758C5.9686 3.69041 5.84449 3.50185 5.68749 3.34265C5.53049 3.18345 5.34366 3.05673 5.13769 2.96974C4.93171 2.88274 4.71062 2.83717 4.48703 2.83562H4.43382C3.97913 2.83562 3.54307 3.01625 3.22155 3.33776C2.90004 3.65928 2.71941 4.09534 2.71941 4.55003C2.71941 5.00472 2.90004 5.44079 3.22155 5.76231C3.54307 6.08382 3.97913 6.26445 4.43382 6.26445C4.65743 6.26995 4.87992 6.23134 5.0886 6.15082C5.29728 6.0703 5.48804 5.94945 5.65 5.79518C5.81196 5.64091 5.94193 5.45624 6.03249 5.25172C6.12305 5.04721 6.17243 4.82685 6.17779 4.60324V4.55003ZM17.1441 11.5141C17.1441 8.67054 15.3351 7.56504 13.5379 7.56504C12.9495 7.53557 12.3636 7.6609 11.8388 7.92853C11.3139 8.19615 10.8683 8.59672 10.5466 9.09027H10.4638V7.80151H7.68529V17.2603H10.6412V12.2294C10.5984 11.7142 10.7608 11.2029 11.0928 10.8066C11.4249 10.4103 11.8999 10.1611 12.4147 10.113H12.527C13.467 10.113 14.1646 10.7042 14.1646 12.1939V17.2603H17.1205L17.1441 11.5141Z" fill="#8127B9"/>
</svg>
