<svg width="71" height="71" viewBox="0 0 71 71" fill="none" xmlns="http://www.w3.org/2000/svg">
<circle cx="35.5" cy="35.5" r="35.5" fill="#3A0CA3"/>
<path d="M31.338 37.7997H35.694C35.9309 37.8011 36.1657 37.7557 36.385 37.6661C36.6043 37.5765 36.8038 37.4446 36.972 37.2777L43.416 30.8338C43.7513 30.4966 43.9394 30.0404 43.9394 29.5648C43.9394 29.0893 43.7513 28.6331 43.416 28.2959L39.06 23.9759C38.7227 23.6407 38.2665 23.4525 37.791 23.4525C37.3155 23.4525 36.8593 23.6407 36.522 23.9759L30.078 30.4198C29.7389 30.7522 29.5448 31.205 29.538 31.6798V35.9997C29.538 36.4771 29.7276 36.935 30.0652 37.2725C30.4028 37.6101 30.8606 37.7997 31.338 37.7997ZM33.138 32.3998L37.8 27.7919L39.6 29.5918L34.956 34.1998H33.156L33.138 32.3998ZM52.2 39.5997H50.4V21.5999H52.2C52.6774 21.5999 53.1352 21.4103 53.4728 21.0727C53.8104 20.7352 54 20.2774 54 19.8C54 19.3226 53.8104 18.8648 53.4728 18.5272C53.1352 18.1896 52.6774 18 52.2 18H19.8C19.3226 18 18.8648 18.1896 18.5272 18.5272C18.1896 18.8648 18 19.3226 18 19.8C18 20.2774 18.1896 20.7352 18.5272 21.0727C18.8648 21.4103 19.3226 21.5999 19.8 21.5999H21.6V39.5997H19.8C19.3226 39.5997 18.8648 39.7893 18.5272 40.1269C18.1896 40.4645 18 40.9223 18 41.3997C18 41.8771 18.1896 42.3349 18.5272 42.6724C18.8648 43.01 19.3226 43.1996 19.8 43.1996H34.2V45.2696L26.01 50.6695C25.674 50.8775 25.4158 51.1903 25.2752 51.5596C25.1346 51.9289 25.1194 52.3342 25.232 52.713C25.3446 53.0917 25.5788 53.4229 25.8983 53.6554C26.2178 53.8879 26.6049 54.0089 27 53.9995C27.3539 54.0035 27.7001 53.8965 27.99 53.6935L34.2 49.5896V52.1995C34.2 52.6769 34.3896 53.1347 34.7272 53.4723C35.0648 53.8099 35.5226 53.9995 36 53.9995C36.4774 53.9995 36.9352 53.8099 37.2728 53.4723C37.6104 53.1347 37.8 52.6769 37.8 52.1995V49.5896L44.01 53.6935C44.2999 53.8965 44.6461 54.0035 45 53.9995C45.3846 53.9965 45.7581 53.8705 46.0658 53.6398C46.3735 53.4091 46.5992 53.086 46.7099 52.7177C46.8206 52.3494 46.8104 51.9553 46.6809 51.5932C46.5513 51.2311 46.3092 50.92 45.99 50.7055L37.8 45.3056V43.1996H52.2C52.6774 43.1996 53.1352 43.01 53.4728 42.6724C53.8104 42.3349 54 41.8771 54 41.3997C54 40.9223 53.8104 40.4645 53.4728 40.1269C53.1352 39.7893 52.6774 39.5997 52.2 39.5997ZM46.8 39.5997H25.2V21.5999H46.8V39.5997Z" fill="#F8F8F8"/>
</svg>
