<svg width="383" height="432" viewBox="0 0 383 432" fill="none" xmlns="http://www.w3.org/2000/svg">
<path d="M231.7 332.474V368.177L254.543 378.459L272.532 374.175L271.39 326.19L231.7 332.474Z" fill="#F48C6C"/>
<path d="M281.098 408.449C281.098 408.449 279.956 351.039 271.39 352.182C263.109 353.324 254.543 361.607 254.543 361.607C254.543 361.607 235.412 350.754 227.131 356.752C218.851 362.75 213.996 375.888 213.996 375.888L167.453 408.449C167.453 408.449 161.743 417.874 163.456 422.73C164.598 426.443 235.697 424.444 266.821 423.301C274.816 423.016 281.098 416.446 281.098 408.449Z" fill="#3D4A8B"/>
<path d="M304.227 4.29688C304.227 4.29688 319.361 -4.55733 334.494 3.1544C349.628 10.5805 346.487 32.002 346.487 32.002C346.487 32.002 367.331 48.5679 371.329 67.1332C375.326 85.6985 366.189 91.6965 366.189 91.6965L332.781 80.5573L314.221 22.8622L304.227 4.29688Z" fill="#442954"/>
<path d="M276.244 81.4143C276.244 81.4143 269.962 66.2764 275.673 56.851C281.669 46.8543 292.805 45.1406 291.949 37.7145C289.95 20.2917 301.943 10.8662 301.943 10.8662L309.652 79.9862L276.244 81.4143Z" fill="#442954"/>
<path d="M249.974 126.256L276.244 81.1284L297.088 124.543L268.249 150.534L249.974 126.256Z" fill="#EF6354"/>
<path d="M166.311 136.824H135.473V177.097H166.311V136.824Z" fill="#6E69E2"/>
<path d="M166.311 136.824C166.311 137.681 159.458 138.538 150.892 138.538C142.326 138.538 135.473 137.681 135.473 136.824C135.473 135.967 142.326 135.111 150.892 135.111C159.458 134.825 166.311 135.682 166.311 136.824Z" fill="white"/>
<path d="M166.311 173.669C160.029 173.669 154.89 167.1 154.89 158.817C154.89 150.534 160.029 143.965 166.311 143.965C172.593 143.965 177.733 150.534 177.733 158.817C177.733 167.1 172.593 173.669 166.311 173.669ZM166.311 146.821C161.457 146.821 157.459 152.248 157.459 158.817C157.459 165.386 161.457 170.813 166.311 170.813C171.165 170.813 175.163 165.386 175.163 158.817C174.877 152.248 171.165 146.821 166.311 146.821Z" fill="#6E69E2"/>
<path d="M340.776 259.926H321.645V390.74H340.776V259.926Z" fill="#C49882"/>
<path d="M371.9 398.738H291.378C287.951 398.738 285.381 396.167 285.381 392.74C285.381 389.312 287.951 386.742 291.378 386.742H371.9C375.326 386.742 377.896 389.312 377.896 392.74C377.896 396.167 375.041 398.738 371.9 398.738Z" fill="#C49882"/>
<path d="M301.943 407.877C301.943 415.018 296.232 420.73 289.093 420.73C281.955 420.73 276.244 415.018 276.244 407.877C276.244 400.737 281.955 395.024 289.093 395.024C296.232 395.024 301.943 400.737 301.943 407.877Z" fill="#C49882"/>
<path d="M344.203 407.877C344.203 415.018 338.492 420.73 331.353 420.73C324.215 420.73 318.504 415.018 318.504 407.877C318.504 400.737 324.215 395.024 331.353 395.024C338.492 395.024 344.203 400.737 344.203 407.877Z" fill="#C49882"/>
<path d="M373.328 420.73C380.424 420.73 386.177 414.976 386.177 407.877C386.177 400.779 380.424 395.024 373.328 395.024C366.231 395.024 360.478 400.779 360.478 407.877C360.478 414.976 366.231 420.73 373.328 420.73Z" fill="#C49882"/>
<path d="M377.896 100.551C377.896 100.551 428.151 126.542 420.727 203.945C414.16 273.636 347.915 299.342 294.804 281.348C241.694 263.354 250.545 211.657 250.545 211.657L377.896 100.551Z" fill="#D7AC93"/>
<path d="M313.364 65.1339C313.364 65.1339 286.523 67.7044 276.244 80.8429C266.25 94.2671 279.385 177.954 280.242 179.096C281.098 180.239 299.658 188.807 332.495 187.95C365.047 187.093 373.042 180.81 374.184 179.096C375.326 177.382 370.472 83.6991 362.477 75.7018C354.482 67.9901 333.066 62.8489 313.364 65.1339Z" fill="#EF6354"/>
<path d="M281.384 339.9V375.317L306.226 385.599L321.645 366.462L324.215 333.616L281.384 339.9Z" fill="#F48C6C"/>
<path d="M346.36 246.69C368.424 243.93 385.613 236.109 384.752 229.222C383.891 222.335 365.306 218.989 343.242 221.749C321.177 224.509 303.989 232.33 304.85 239.218C305.711 246.105 324.296 249.45 346.36 246.69Z" fill="#C49882"/>
<path d="M285.667 172.812C285.667 172.812 216.566 207.658 208 221.653C199.434 235.934 208.857 351.039 208.857 351.039L270.248 351.896L278.814 287.632L325.357 179.096L285.667 172.812Z" fill="#23283C"/>
<path d="M369.616 180.239C369.616 180.239 372.471 211.086 371.329 221.368C370.472 231.65 338.206 255.357 338.206 255.357L336.493 354.181L265.679 357.323C265.679 357.323 264.251 244.218 265.394 233.65C266.536 223.082 313.65 184.237 313.65 184.237L369.616 180.239Z" fill="#23283C"/>
<path d="M257.684 394.453C257.684 394.453 269.677 363.892 277.672 358.751C285.381 353.61 305.084 370.176 305.084 370.176C305.084 370.176 321.359 352.467 325.357 361.893C329.355 371.318 331.353 404.45 328.498 411.876C325.357 419.302 303.085 431.298 273.389 431.298C259.397 431.298 239.409 426.728 239.409 421.873C239.409 413.875 253.115 399.309 257.684 394.453Z" fill="#2E3C83"/>
<path d="M264.822 352.467C264.251 352.467 263.966 352.181 263.966 351.61C263.68 347.04 259.397 242.503 261.967 230.222C263.68 222.224 285.096 200.517 289.95 195.662L271.961 189.093C271.39 188.807 271.39 188.521 271.39 187.95C271.675 187.379 271.961 187.379 272.532 187.379L291.663 194.519C291.949 194.519 292.234 194.805 292.234 195.091C292.234 195.376 292.234 195.662 291.949 195.947C291.663 196.233 265.108 222.224 263.395 230.507C260.825 242.789 265.394 350.468 265.394 351.61C265.679 352.181 265.394 352.467 264.822 352.467Z" fill="white"/>
<path d="M266.25 155.389C265.965 155.389 265.679 155.389 265.679 155.104C265.679 154.818 265.679 154.247 265.965 154.247C273.674 150.534 281.955 150.82 282.24 150.82C282.526 150.82 282.811 151.105 282.811 151.391C282.811 151.676 282.526 152.248 282.24 151.962C282.24 151.962 273.96 151.676 266.536 155.389C266.536 155.389 266.536 155.389 266.25 155.389Z" fill="black"/>
<path d="M338.777 256.785C338.492 256.785 338.492 256.785 338.206 256.499C337.064 255.642 327.07 247.359 327.07 243.361C327.07 242.789 327.356 241.932 327.927 241.647C329.355 240.504 331.068 240.219 332.495 240.504C337.35 242.504 339.634 254.214 339.634 255.642C339.634 255.928 339.634 256.213 339.348 256.499C339.063 256.785 339.063 256.785 338.777 256.785ZM331.068 242.218C330.497 242.218 329.64 242.504 329.069 243.075L328.783 243.361C328.783 245.36 333.638 250.215 337.635 253.643C336.779 249.644 334.78 243.361 331.924 242.218C331.639 242.218 331.353 242.218 331.068 242.218Z" fill="white"/>
<path d="M369.901 183.38C346.487 183.38 327.356 178.525 327.07 178.525C326.785 178.525 326.499 177.954 326.499 177.668C326.499 177.382 327.07 177.097 327.356 177.097C327.641 177.097 347.058 181.952 371.043 181.952C371.614 181.952 371.9 182.238 371.9 182.809C371.9 183.38 371.614 183.666 371.043 183.666C371.043 183.38 370.472 183.38 369.901 183.38Z" fill="#FFBA57"/>
<path d="M414.16 176.811H60.0903V189.378H414.16V176.811Z" fill="#E0BDAF"/>
<path d="M264.822 340.757C264.251 340.757 263.966 340.471 263.966 339.9C263.966 339.329 264.251 339.043 264.822 339.043L336.779 335.33C337.35 335.33 337.635 335.616 337.635 336.187C337.635 336.758 337.35 337.044 336.779 337.044L264.822 340.757Z" fill="white"/>
<path d="M264.251 337.044H208.571C208 337.044 207.714 336.758 207.714 336.187C207.714 335.616 208 335.33 208.571 335.33H264.251C264.822 335.33 265.108 335.616 265.108 336.187C265.108 336.758 264.537 337.044 264.251 337.044Z" fill="white"/>
<path d="M465.557 427.014C464.7 427.014 463.844 426.443 463.273 425.872L307.368 188.236C306.511 187.094 306.797 185.38 308.225 184.523C309.367 183.666 311.08 183.952 311.937 185.38L467.841 423.015C468.698 424.158 468.413 425.872 466.985 426.728C466.699 426.728 466.128 427.014 465.557 427.014Z" fill="#E0BDAF"/>
<path d="M2.69677 427.014C2.12569 427.014 1.55461 426.728 1.26907 426.443C0.126907 425.586 -0.444173 423.872 0.412447 422.73L156.317 185.094C157.174 183.952 158.887 183.38 160.029 184.237C161.171 185.094 161.743 186.808 160.886 187.95L4.98109 425.872C4.69555 426.443 3.83893 427.014 2.69677 427.014Z" fill="#E0BDAF"/>
<path d="M347.629 69.418C347.629 69.418 365.047 71.7029 380.466 95.695C396.456 120.258 400.454 141.68 400.454 141.68L352.769 140.823L347.629 69.418Z" fill="#EF6354"/>
<path d="M397.884 141.394C397.884 141.394 403.024 163.387 387.89 173.669C373.328 183.666 313.364 167.386 313.364 167.386L313.079 143.108L358.48 140.538L397.884 141.394Z" fill="#F48C6C"/>
<path d="M320.217 143.965C320.217 143.965 309.081 142.251 303.941 142.251C296.232 142.251 279.956 145.678 273.389 146.821C266.821 148.249 252.259 159.103 254.543 160.816C256.827 162.53 271.39 157.103 271.39 157.103C271.39 157.103 261.11 169.956 263.109 171.955C265.394 173.955 269.677 170.527 269.677 170.527C269.677 170.527 266.25 174.526 270.248 175.097C273.96 175.954 286.524 163.958 286.524 163.958C286.524 163.958 281.669 175.383 284.239 176.24C286.809 177.097 295.375 166.243 295.375 166.243C295.375 166.243 308.796 173.384 315.078 165.957C321.359 158.531 322.502 152.819 322.502 152.819L320.217 143.965Z" fill="#F48C6C"/>
<path d="M269.962 171.67C269.677 171.67 269.677 171.67 269.391 171.385C269.106 171.099 268.82 170.528 269.391 170.242L281.669 155.39C281.955 155.104 282.526 154.819 282.811 155.39C283.097 155.675 283.383 156.247 282.811 156.532L270.533 171.385C270.533 171.67 270.248 171.67 269.962 171.67Z" fill="black"/>
<path d="M271.675 158.246C271.39 158.246 271.39 158.246 271.104 157.96C270.819 157.674 270.533 157.103 271.104 156.818L275.673 151.391C275.959 151.105 276.53 150.82 276.815 151.391C277.101 151.676 277.386 152.248 276.815 152.533L272.247 157.96C272.247 157.96 271.961 158.246 271.675 158.246Z" fill="black"/>
<path d="M104.92 121.401H124.051C126.05 121.401 127.478 119.688 127.478 117.974V106.549C127.478 104.55 125.765 103.122 124.051 103.122H104.92C102.921 103.122 101.494 104.835 101.494 106.549V117.974C101.494 119.973 102.921 121.401 104.92 121.401Z" fill="white"/>
<path d="M104.92 139.966H124.051C126.05 139.966 127.478 138.252 127.478 136.539V125.114C127.478 123.115 125.765 121.687 124.051 121.687H104.92C102.921 121.687 101.494 123.4 101.494 125.114V136.539C101.494 138.252 102.921 139.966 104.92 139.966Z" fill="white"/>
<path d="M104.92 158.532H124.051C126.05 158.532 127.478 156.818 127.478 155.104V143.679C127.478 141.68 125.765 140.252 124.051 140.252H104.92C102.921 140.252 101.494 141.966 101.494 143.679V155.104C101.494 156.818 102.921 158.532 104.92 158.532Z" fill="white"/>
<path d="M104.92 176.811H124.051C126.05 176.811 127.478 175.098 127.478 173.384V161.959C127.478 159.96 125.765 158.532 124.051 158.532H104.92C102.921 158.532 101.494 160.245 101.494 161.959V173.384C101.494 175.383 102.921 176.811 104.92 176.811Z" fill="white"/>
<path d="M108.425 104.591H120.703V96.8796H108.425V104.591Z" fill="white"/>
<path d="M121.767 132.255C121.196 132.255 120.91 131.969 120.91 131.398V106.549C120.91 105.978 121.196 105.692 121.767 105.692C122.338 105.692 122.624 105.978 122.624 106.549V131.398C122.624 131.969 122.338 132.255 121.767 132.255Z" fill="#E0BDAF"/>
<path d="M108.632 98.8371H120.625C121.481 98.8371 122.053 98.2659 122.053 97.409V91.411C122.053 90.5541 121.481 89.9829 120.625 89.9829H108.632C107.776 89.9829 107.204 90.5541 107.204 91.411V97.409C107.204 98.2659 107.776 98.8371 108.632 98.8371Z" fill="#EF6354"/>
<path d="M293.091 171.099H207.429L182.872 115.688H265.108C267.107 115.688 269.106 116.831 269.962 118.83L293.091 171.099Z" fill="white"/>
<path d="M285.667 171.099H200.005L178.018 121.686C176.876 118.83 178.875 115.688 182.016 115.688H261.11L285.667 171.099Z" fill="#3D3D3D"/>
<path d="M321.645 177.953H200.862C198.863 177.953 197.435 176.525 197.435 174.526C197.435 172.527 198.863 171.099 200.862 171.099H321.93C323.929 171.099 325.357 172.527 325.357 174.526C325.357 176.525 323.644 177.953 321.645 177.953Z" fill="#2D386B"/>
<path d="M238.838 143.394C238.838 147.393 235.697 150.534 231.7 150.534C227.702 150.534 224.561 147.393 224.561 143.394C224.561 139.395 227.702 136.253 231.7 136.253C235.697 135.968 238.838 139.11 238.838 143.394Z" fill="white"/>
<path d="M285.381 132.255C285.096 132.255 285.096 132.255 284.81 131.969C268.535 117.117 282.526 94.2672 282.812 94.2672C283.097 93.9816 283.668 93.696 283.954 93.9816C284.239 94.2672 284.525 94.8384 284.239 95.1241C284.239 95.4097 270.819 117.117 285.952 130.827C286.238 131.112 286.238 131.683 285.952 131.969C285.667 132.255 285.381 132.255 285.381 132.255Z" fill="white"/>
<path d="M327.356 48.8535L328.783 67.1332C328.783 67.1332 325.928 72.5599 315.363 74.2737C307.368 75.4161 304.512 71.7031 304.512 71.7031L305.084 55.4228L324.215 49.7104L327.356 48.8535Z" fill="#F48C6C"/>
<path d="M324.215 49.7104C324.215 50.2817 323.929 50.8529 323.929 51.4242C320.503 60.8496 309.652 63.7058 305.084 64.5627L305.369 55.4228L324.215 49.7104Z" fill="black"/>
<path d="M297.66 14.2938C297.66 14.2938 289.95 38.0002 294.519 50.5675C299.373 63.1347 310.794 59.9929 317.647 56.8511C324.5 53.7093 327.356 49.1394 327.356 49.1394C327.356 49.1394 334.209 50.8531 337.921 44.2838C341.633 37.7146 338.492 31.1453 334.494 30.0028C330.497 28.8604 326.499 32.0022 326.499 32.0022L329.354 25.1473C329.069 24.5761 311.365 -7.69895 297.66 14.2938Z" fill="#F48C6C"/>
<path d="M326.214 31.4308C326.214 31.4308 316.505 34.287 308.796 24.2903C300.8 14.008 301.086 9.43804 301.086 9.43804L295.375 21.4341C295.375 21.4341 293.091 13.7223 295.661 8.58118C298.231 3.15441 301.657 4.01127 301.657 4.01127L323.644 7.15309L331.068 23.719L326.214 31.4308Z" fill="#442954"/>
<path d="M301.372 43.1413C301.086 43.1413 300.8 42.8556 300.515 42.57C298.516 37.7145 301.372 32.5733 301.657 32.2877C301.943 32.0021 302.514 31.7165 302.799 32.0021C303.085 32.2877 303.37 32.859 303.085 33.1446C303.085 33.1446 300.515 38.0001 302.228 41.9988C302.514 42.2844 302.228 42.8556 301.657 43.1413C301.657 43.1413 301.657 43.1413 301.372 43.1413Z" fill="black"/>
<path d="M309.938 26.2894C309.652 26.2894 309.367 26.0038 309.081 25.7182C307.368 22.2907 305.655 22.862 305.655 22.862C305.369 22.862 304.798 22.862 304.513 22.2907C304.227 22.0051 304.513 21.4339 305.084 21.1482C305.084 21.1482 308.225 20.0058 310.509 24.8613C310.794 25.1469 310.509 25.7182 310.223 26.0038C310.223 26.2894 309.938 26.2894 309.938 26.2894Z" fill="black"/>
<path d="M295.09 24.2901C294.519 24.2901 294.233 23.7188 294.233 23.4332C294.233 23.1476 294.519 21.7195 295.946 20.8626C296.803 20.2914 297.945 20.577 299.087 21.1483C299.373 21.4339 299.658 21.7195 299.373 22.2907C299.087 22.5764 298.802 22.862 298.231 22.5764C297.66 22.2907 297.088 22.0051 296.517 22.2907C295.946 22.5764 295.661 23.4332 295.661 23.7188C295.946 24.0045 295.661 24.2901 295.09 24.2901Z" fill="black"/>
<path d="M328.212 41.9987C327.927 41.9987 327.927 41.9987 327.641 41.7131C327.356 41.4275 327.356 40.8563 327.356 40.5706L332.781 33.4301C333.067 33.1445 333.638 33.1445 333.923 33.1445C334.209 33.4302 334.209 34.0014 334.209 34.287L328.783 41.4275C328.783 41.9987 328.498 41.9987 328.212 41.9987Z" fill="black"/>
<path d="M334.78 39.7137L330.497 39.4281C329.926 39.4281 329.64 39.1425 329.64 38.5712C329.64 38 329.926 37.7144 330.497 37.7144L334.78 38C335.351 38 335.636 38.2856 335.636 38.8568C335.351 39.4281 335.065 39.7137 334.78 39.7137Z" fill="black"/>
<path d="M296.517 34.5725C295.946 34.5725 295.661 34.2868 295.661 33.7156L295.946 29.7169L294.233 28.2888C293.948 28.0032 293.948 27.432 294.233 27.1463C294.519 26.8607 295.09 26.8607 295.375 27.1463L297.088 28.8601C297.374 29.1457 297.374 29.1457 297.374 29.4313L297.088 33.7156C297.374 34.2868 297.088 34.5725 296.517 34.5725Z" fill="black"/>
<path d="M309.081 34.2868C308.51 34.2868 308.225 34.0012 308.225 33.43V29.7169L305.94 28.0032C305.655 27.7176 305.655 27.1463 305.94 26.8607C306.226 26.5751 306.797 26.5751 307.082 26.8607L309.652 28.86C309.938 29.1457 309.938 29.1457 309.938 29.4313V33.7156C309.938 34.0012 309.367 34.2868 309.081 34.2868Z" fill="black"/>
<path d="M305.084 50.853C302.799 50.853 300.229 49.4249 299.944 49.1393C299.658 48.8537 299.373 48.568 299.658 48.2824C299.658 47.9968 299.944 47.7112 300.229 47.7112L309.938 44.855C310.223 44.855 310.509 44.855 310.794 45.1406C311.08 45.4262 311.08 45.7118 310.794 45.9975C310.509 46.2831 308.796 49.7105 306.511 50.853C305.94 50.853 305.369 50.853 305.084 50.853ZM302.514 48.8537C303.656 49.4249 305.084 49.7105 305.655 49.4249C306.511 49.1393 307.368 48.2824 307.939 47.1399L302.514 48.8537Z" fill="black"/>
<path d="M313.364 75.1307C306.226 75.1307 303.941 72.2745 303.941 72.2745C303.656 71.9889 303.656 71.4177 303.941 71.132C304.227 70.8464 304.798 70.8464 305.084 71.132C305.084 71.132 307.653 73.9882 315.934 73.417C324.215 72.5601 328.212 66.8477 328.212 66.5621C328.498 66.2765 329.069 65.9909 329.355 66.2765C329.64 66.5621 329.926 67.1334 329.64 67.419C329.355 67.7046 325.357 73.9882 316.22 74.8451C315.077 75.1307 314.221 75.1307 313.364 75.1307Z" fill="white"/>
<path d="M358.48 141.394C358.194 141.394 358.194 141.394 357.908 141.109C356.195 139.395 348.486 131.112 351.341 127.97C352.198 126.828 353.054 126.828 353.625 127.113C356.766 127.97 358.765 138.538 359.051 140.537C359.051 140.823 359.051 141.109 358.48 141.394C358.765 141.394 358.765 141.394 358.48 141.394ZM353.34 128.541C353.34 128.541 353.054 128.541 352.769 128.827C351.627 130.255 354.482 134.254 357.337 137.681C356.195 133.397 354.767 129.113 353.34 128.541Z" fill="white"/>
</svg>
