<svg width="23" height="19" viewBox="0 0 23 19" fill="none" xmlns="http://www.w3.org/2000/svg">
<path d="M20.7136 4.75111C20.7272 4.948 20.7272 5.14488 20.7272 5.34358C20.7272 11.398 16.1181 18.3807 7.69014 18.3807V18.377C5.2005 18.3807 2.76256 17.6675 0.666687 16.3229C1.0287 16.3664 1.39253 16.3882 1.75727 16.3891C3.82048 16.3909 5.82472 15.6987 7.44789 14.4239C5.4872 14.3867 3.76786 13.1083 3.16722 11.242C3.85405 11.3744 4.56175 11.3472 5.23588 11.163C3.09827 10.7312 1.56038 8.85304 1.56038 6.67188C1.56038 6.65192 1.56038 6.63286 1.56038 6.61381C2.19731 6.96857 2.91045 7.16545 3.63993 7.18723C1.62662 5.84169 1.00602 3.16333 2.22181 1.06927C4.54814 3.93181 7.98048 5.67203 11.665 5.85621C11.2958 4.2648 11.8002 2.59717 12.9906 1.47846C14.8361 -0.256309 17.7386 -0.167393 19.4733 1.67716C20.4995 1.47483 21.483 1.0983 22.3831 0.564803C22.041 1.62544 21.3251 2.5264 20.3688 3.09891C21.277 2.99185 22.1644 2.74869 23 2.3776C22.3849 3.29942 21.61 4.10239 20.7136 4.75111Z" fill="#8127B9"/>
</svg>
