<svg width="48" height="48" viewBox="0 0 48 48" fill="#000000" xmlns="http://www.w3.org/2000/svg">
<path d="M9.24 36.24C11.28 34.68 13.56 33.4496 16.08 32.5488C18.6 31.6496 21.24 31.2 24 31.2C26.76 31.2 29.4 31.6496 31.92 32.5488C34.44 33.4496 36.72 34.68 38.76 36.24C40.16 34.6 41.2504 32.74 42.0312 30.66C42.8104 28.58 43.2 26.36 43.2 24C43.2 18.68 41.3304 14.1496 37.5912 10.4088C33.8504 6.6696 29.32 4.8 24 4.8C18.68 4.8 14.1504 6.6696 10.4112 10.4088C6.6704 14.1496 4.8 18.68 4.8 24C4.8 26.36 5.1904 28.58 5.9712 30.66C6.7504 32.74 7.84 34.6 9.24 36.24ZM24 26.4C21.64 26.4 19.6496 25.5904 18.0288 23.9712C16.4096 22.3504 15.6 20.36 15.6 18C15.6 15.64 16.4096 13.6496 18.0288 12.0288C19.6496 10.4096 21.64 9.6 24 9.6C26.36 9.6 28.3504 10.4096 29.9712 12.0288C31.5904 13.6496 32.4 15.64 32.4 18C32.4 20.36 31.5904 22.3504 29.9712 23.9712C28.3504 25.5904 26.36 26.4 24 26.4ZM24 48C20.68 48 17.56 47.3696 14.64 46.1088C11.72 44.8496 9.18 43.14 7.02 40.98C4.86 38.82 3.1504 36.28 1.8912 33.36C0.6304 30.44 0 27.32 0 24C0 20.68 0.6304 17.56 1.8912 14.64C3.1504 11.72 4.86 9.18 7.02 7.02C9.18 4.86 11.72 3.1496 14.64 1.8888C17.56 0.6296 20.68 0 24 0C27.32 0 30.44 0.6296 33.36 1.8888C36.28 3.1496 38.82 4.86 40.98 7.02C43.14 9.18 44.8496 11.72 46.1088 14.64C47.3696 17.56 48 20.68 48 24C48 27.32 47.3696 30.44 46.1088 33.36C44.8496 36.28 43.14 38.82 40.98 40.98C38.82 43.14 36.28 44.8496 33.36 46.1088C30.44 47.3696 27.32 48 24 48Z" fill="#white"/>
</svg>
