<svg width="15" height="16" viewBox="0 0 15 16" fill="none" xmlns="http://www.w3.org/2000/svg">
<path fill-rule="evenodd" clip-rule="evenodd" d="M7.5999 0.799805C5.64438 0.799805 5.39958 0.807965 4.63158 0.843005C3.86502 0.878045 3.34134 0.999965 2.88342 1.17804C2.40342 1.35852 1.96806 1.64172 1.60806 2.00844C1.24193 2.36803 0.958554 2.80308 0.777662 3.28332C0.600542 3.74124 0.478142 4.2654 0.443102 5.03197C0.408542 5.79949 0.399902 6.04381 0.399902 7.9998C0.399902 9.9558 0.408062 10.2001 0.443102 10.9681C0.478142 11.7347 0.600062 12.2584 0.778142 12.7163C0.958622 13.1963 1.24182 13.6316 1.60854 13.9916C1.96814 14.3578 2.40319 14.6411 2.88342 14.822C3.34134 14.9996 3.86502 15.1216 4.63158 15.1566C5.39958 15.1916 5.64438 15.1998 7.5999 15.1998C9.55542 15.1998 9.80022 15.1916 10.5682 15.1566C11.3348 15.1216 11.8585 14.9996 12.3164 14.8216C12.7964 14.6411 13.2317 14.3579 13.5917 13.9912C13.9579 13.6316 14.2413 13.1965 14.4221 12.7163C14.5997 12.2584 14.7217 11.7347 14.7567 10.9681C14.7917 10.2001 14.7999 9.95533 14.7999 7.9998C14.7999 6.04428 14.7917 5.79948 14.7567 5.03149C14.7217 4.26492 14.5997 3.74124 14.4217 3.28332C14.2409 2.80288 13.9575 2.36764 13.5913 2.00796C13.2317 1.64183 12.7966 1.35846 12.3164 1.17756C11.8585 1.00044 11.3343 0.878045 10.5677 0.843005C9.80022 0.808445 9.5559 0.799805 7.5999 0.799805ZM7.5999 2.09724C9.5223 2.09724 9.7503 2.10444 10.5097 2.139C11.2114 2.17116 11.5925 2.2878 11.8465 2.38716C12.1825 2.51724 12.4225 2.67372 12.6745 2.92524C12.9265 3.17724 13.0825 3.41724 13.2125 3.75324C13.3114 4.00716 13.4285 4.38828 13.4607 5.09004C13.4953 5.8494 13.5025 6.0774 13.5025 7.9998C13.5025 9.9222 13.4953 10.1502 13.4607 10.9096C13.4285 11.6113 13.3119 11.9924 13.2125 12.2464C13.0973 12.5591 12.9134 12.842 12.6745 13.0744C12.4422 13.3134 12.1592 13.4973 11.8465 13.6124C11.5925 13.7113 11.2114 13.8284 10.5097 13.8606C9.7503 13.8952 9.52278 13.9024 7.5999 13.9024C5.67702 13.9024 5.4495 13.8952 4.69014 13.8606C3.98838 13.8284 3.60726 13.7118 3.35334 13.6124C3.0406 13.4972 2.75767 13.3133 2.52534 13.0744C2.28639 12.842 2.10252 12.5591 1.98726 12.2464C1.88838 11.9924 1.77126 11.6113 1.7391 10.9096C1.70454 10.1502 1.69734 9.9222 1.69734 7.9998C1.69734 6.0774 1.70454 5.8494 1.7391 5.09004C1.77126 4.38828 1.8879 4.00716 1.98726 3.75324C2.11734 3.41724 2.27382 3.17724 2.52534 2.92524C2.75763 2.68623 3.04058 2.50235 3.35334 2.38716C3.60726 2.28828 3.98838 2.17116 4.69014 2.139C5.4495 2.10444 5.6775 2.09724 7.5999 2.09724Z" fill="#626262"/>
<path fill-rule="evenodd" clip-rule="evenodd" d="M7.59972 10.4021C7.28424 10.4021 6.97184 10.34 6.68037 10.2193C6.38889 10.0985 6.12406 9.92157 5.90097 9.69849C5.67789 9.4754 5.50093 9.21056 5.3802 8.91909C5.25947 8.62762 5.19733 8.31522 5.19733 7.99973C5.19733 7.68425 5.25947 7.37185 5.3802 7.08037C5.50093 6.7889 5.67789 6.52406 5.90097 6.30098C6.12406 6.0779 6.38889 5.90094 6.68037 5.78021C6.97184 5.65947 7.28424 5.59733 7.59972 5.59733C8.23688 5.59733 8.84794 5.85044 9.29848 6.30098C9.74901 6.75152 10.0021 7.36258 10.0021 7.99973C10.0021 8.63689 9.74901 9.24795 9.29848 9.69849C8.84794 10.149 8.23688 10.4021 7.59972 10.4021ZM7.59972 4.29893C6.61821 4.29893 5.6769 4.68884 4.98286 5.38287C4.28883 6.07691 3.89893 7.01822 3.89893 7.99973C3.89893 8.98125 4.28883 9.92256 4.98286 10.6166C5.6769 11.3106 6.61821 11.7005 7.59972 11.7005C8.58124 11.7005 9.52255 11.3106 10.2166 10.6166C10.9106 9.92256 11.3005 8.98125 11.3005 7.99973C11.3005 7.01822 10.9106 6.07691 10.2166 5.38287C9.52255 4.68884 8.58124 4.29893 7.59972 4.29893ZM12.3772 4.23173C12.3772 4.46374 12.285 4.68625 12.1209 4.85031C11.9569 5.01437 11.7344 5.10653 11.5024 5.10653C11.2704 5.10653 11.0478 5.01437 10.8838 4.85031C10.7197 4.68625 10.6276 4.46374 10.6276 4.23173C10.6276 3.99972 10.7197 3.77721 10.8838 3.61316C11.0478 3.4491 11.2704 3.35693 11.5024 3.35693C11.7344 3.35693 11.9569 3.4491 12.1209 3.61316C12.285 3.77721 12.3772 3.99972 12.3772 4.23173Z" fill="#626262"/>
</svg>
