<svg width="15" height="16" viewBox="0 0 15 16" fill="none" xmlns="http://www.w3.org/2000/svg">
<path d="M14.4 1.85863V14.141C14.4 14.4218 14.2884 14.6911 14.0899 14.8897C13.8913 15.0883 13.622 15.1998 13.3412 15.1998H1.05882C0.778006 15.1998 0.50869 15.0883 0.310122 14.8897C0.111554 14.6911 0 14.4218 0 14.141L0 1.85863C0 1.57781 0.111554 1.30849 0.310122 1.10993C0.50869 0.911359 0.778006 0.799805 1.05882 0.799805L13.3412 0.799805C13.622 0.799805 13.8913 0.911359 14.0899 1.10993C14.2884 1.30849 14.4 1.57781 14.4 1.85863ZM4.23529 6.30569H2.11765V13.0822H4.23529V6.30569ZM4.42588 3.97628C4.427 3.81609 4.39655 3.65726 4.33628 3.50884C4.27601 3.36043 4.1871 3.22533 4.07462 3.11128C3.96214 2.99723 3.8283 2.90645 3.68073 2.84412C3.53317 2.7818 3.37477 2.74915 3.21459 2.74804H3.17647C2.85072 2.74804 2.53832 2.87744 2.30798 3.10778C2.07764 3.33812 1.94824 3.65053 1.94824 3.97628C1.94824 4.30202 2.07764 4.61443 2.30798 4.84477C2.53832 5.07511 2.85072 5.20451 3.17647 5.20451C3.33666 5.20845 3.49607 5.18079 3.64556 5.1231C3.79506 5.06542 3.93173 4.97884 4.04776 4.86832C4.16379 4.7578 4.2569 4.6255 4.32178 4.47898C4.38666 4.33246 4.42204 4.17459 4.42588 4.01439V3.97628ZM12.2824 8.96545C12.2824 6.92828 10.9864 6.13628 9.69882 6.13628C9.27726 6.11517 8.85753 6.20496 8.4815 6.39669C8.10547 6.58842 7.78628 6.87539 7.55576 7.22898H7.49647V6.30569H5.50588V13.0822H7.62353V9.47792C7.59292 9.10879 7.70919 8.74248 7.9471 8.45858C8.185 8.17468 8.52532 7.99612 8.89412 7.96169H8.97459C9.648 7.96169 10.1478 8.38522 10.1478 9.45251V13.0822H12.2654L12.2824 8.96545Z" fill="#626262"/>
</svg>
