<svg width="21" height="20" viewBox="0 0 21 20" fill="none" xmlns="http://www.w3.org/2000/svg">
<path d="M3.5 4C3.5 2.61929 4.61929 1.5 6 1.5C7.38071 1.5 8.5 2.61929 8.5 4C8.5 5.38071 7.38071 6.5 6 6.5C4.61929 6.5 3.5 5.38071 3.5 4ZM6 0C3.79086 0 2 1.79086 2 4C2 6.20914 3.79086 8 6 8C8.2091 8 10 6.20914 10 4C10 1.79086 8.2091 0 6 0ZM13.5 5C13.5 4.17157 14.1716 3.5 15 3.5C15.8284 3.5 16.5 4.17157 16.5 5C16.5 5.82843 15.8284 6.5 15 6.5C14.1716 6.5 13.5 5.82843 13.5 5ZM15 2C13.3431 2 12 3.34315 12 5C12 6.65685 13.3431 8 15 8C16.6569 8 18 6.65685 18 5C18 3.34315 16.6569 2 15 2ZM2.25 10C1.00736 10 0 11.0074 0 12.25V12.5011V12.5022L1.00136e-05 12.5048L7.00951e-05 12.5111L0.000349998 12.5277C0.000639998 12.5406 0.00116999 12.5571 0.00209999 12.5771C0.00395999 12.6169 0.00744991 12.6705 0.0139799 12.7358C0.0270099 12.8661 0.05233 13.045 0.10165 13.2564C0.19995 13.6776 0.39654 14.2404 0.79183 14.8051C1.61066 15.9749 3.17178 17 6 17C7.36897 17 8.4411 16.7598 9.2758 16.3793C9.1268 15.8851 9.035 15.366 9.0082 14.8299C8.3633 15.2108 7.41267 15.5 6 15.5C3.57822 15.5 2.51434 14.6501 2.02067 13.9449C1.75971 13.5721 1.62818 13.1974 1.56241 12.9155C1.5297 12.7753 1.514 12.6612 1.50653 12.5865C1.50281 12.5493 1.50117 12.5222 1.50047 12.5072L1.5 12.4947V12.25C1.5 11.8358 1.83579 11.5 2.25 11.5H9.7322C9.9807 11.0233 10.2865 10.5813 10.6405 10.1831C10.3674 10.0653 10.0663 10 9.75 10H2.25ZM21 14.5C21 17.5376 18.5376 20 15.5 20C12.4624 20 10 17.5376 10 14.5C10 11.4624 12.4624 9 15.5 9C18.5376 9 21 11.4624 21 14.5ZM16.0554 11.4206C15.8806 10.8598 15.1194 10.8598 14.9446 11.4206L14.3876 13.2077H12.5851C12.0194 13.2077 11.7842 13.9623 12.2418 14.3089L13.7001 15.4134L13.1431 17.2004C12.9683 17.7612 13.584 18.2276 14.0417 17.881L15.5 16.7766L16.9583 17.881C17.416 18.2276 18.0317 17.7612 17.8569 17.2004L17.2999 15.4134L18.7582 14.3089C19.2158 13.9623 18.9806 13.2077 18.4149 13.2077H16.6124L16.0554 11.4206Z" fill="#8127B9"/>
</svg>
