<svg width="20" height="16" viewBox="0 0 20 16" fill="none" xmlns="http://www.w3.org/2000/svg">
<path d="M3 0C1.34315 0 0 1.34315 0 3V10.5C0 12.1569 1.34315 13.5 3 13.5H14.5C16.1569 13.5 17.5 12.1569 17.5 10.5V3C17.5 1.34315 16.1569 0 14.5 0H3ZM1.5 3C1.5 2.17157 2.17157 1.5 3 1.5H5.99999V2.70801C5.69376 2.57422 5.35554 2.49999 4.99999 2.49999C3.61928 2.5 2.5 3.61928 2.5 4.99999C2.5 5.35555 2.57422 5.69377 2.70803 6H1.5V3ZM7.49999 2.70803V1.5H14.5C15.3284 1.5 16 2.17157 16 3V6H10.792C10.9258 5.69377 11 5.35555 11 5C11 3.61929 9.8807 2.5 8.5 2.5C8.1444 2.5 7.80622 2.57423 7.49999 2.70803ZM8.5607 7.5H16V10.5C16 11.3284 15.3284 12 14.5 12H7.49999V8.5607L9.2197 10.2803C9.5126 10.5732 9.9874 10.5732 10.2803 10.2803C10.5732 9.9874 10.5732 9.5126 10.2803 9.2197L8.5607 7.5ZM5.99999 8.5607V12H3C2.17157 12 1.5 11.3284 1.5 10.5V7.5H4.93934L3.21967 9.2197C2.92678 9.5126 2.92678 9.9874 3.21967 10.2803C3.51256 10.5732 3.98744 10.5732 4.28033 10.2803L5.99999 8.5607ZM9.5 5C9.5 5.55228 9.0523 6 8.5 6H7.5V5C7.5 4.44772 7.94772 4 8.5 4C9.0523 4 9.5 4.44772 9.5 5ZM5 3.99999C5.55089 3.99999 5.99774 4.44545 5.99999 4.99581V5.99999H5C4.44771 5.99999 4 5.55228 4 4.99999C4 4.44771 4.44771 4 5 3.99999ZM5.50002 16C4.3896 16 3.42008 15.3967 2.90137 14.5H14.5C16.7092 14.5 18.5 12.7092 18.5 10.5V2.90137C19.3967 3.42008 20 4.3896 20 5.50002V10.5C20 13.5376 17.5376 16 14.5 16H5.50002Z" fill="#8127B9"/>
</svg>
