<svg width="18" height="16" viewBox="0 0 18 16" fill="none" xmlns="http://www.w3.org/2000/svg">
<path d="M1.00424 5.09054C0.950361 4.50492 1.417 4 2.01209 4H15.9879C16.583 4 17.0496 4.50492 16.9958 5.09054L16.1678 14.0905C16.1204 14.6056 15.6833 15 15.1599 15H2.8401C2.31669 15 1.87964 14.6056 1.83225 14.0905L1.00424 5.09054Z" fill="url(#paint0_linear_80_705)"/>
<path d="M1.91592 2V4H16.0841V3.5C16.0841 2.94772 15.631 2.5 15.0721 2.5H8.01764C7.68256 2.5 7.3692 2.33611 7.18078 2.06231L6.75094 1.43769C6.56252 1.16389 6.24916 1 5.91408 1H2.92793C2.36901 1 1.91592 1.44772 1.91592 2Z" fill="url(#paint1_linear_80_705)"/>
<path d="M1.00424 5.09054C0.950361 4.50492 1.417 4 2.01209 4H15.9879C16.583 4 17.0496 4.50492 16.9958 5.09054L16.1678 14.0905C16.1204 14.6056 15.6833 15 15.1599 15H2.8401C2.31669 15 1.87964 14.6056 1.83225 14.0905L1.00424 5.09054Z" stroke="#75A8D7"/>
<path d="M1.91592 2V4H16.0841V3.5C16.0841 2.94772 15.631 2.5 15.0721 2.5H8.01764C7.68256 2.5 7.3692 2.33611 7.18078 2.06231L6.75094 1.43769C6.56252 1.16389 6.24916 1 5.91408 1H2.92793C2.36901 1 1.91592 1.44772 1.91592 2Z" stroke="#75A8D7"/>
<defs>
<linearGradient id="paint0_linear_80_705" x1="9" y1="1" x2="9" y2="15" gradientUnits="userSpaceOnUse">
<stop stop-color="#E6F0FF"/>
<stop offset="1" stop-color="#CADCF5"/>
</linearGradient>
<linearGradient id="paint1_linear_80_705" x1="9" y1="1" x2="9" y2="15" gradientUnits="userSpaceOnUse">
<stop stop-color="#E6F0FF"/>
<stop offset="1" stop-color="#CADCF5"/>
</linearGradient>
</defs>
</svg>
