<svg width="26" height="18" viewBox="0 0 26 18" fill="none" xmlns="http://www.w3.org/2000/svg">
<path d="M15.25 15C15.8713 15 16.375 15.5037 16.375 16.125C16.375 16.7463 15.8713 17.25 15.25 17.25H10.75C10.1287 17.25 9.625 16.7463 9.625 16.125C9.625 15.5037 10.1287 15 10.75 15H15.25ZM19.75 7.5C20.3713 7.5 20.875 8.0037 20.875 8.625C20.875 9.2463 20.3713 9.75 19.75 9.75H6.25C5.62868 9.75 5.125 9.2463 5.125 8.625C5.125 8.0037 5.62868 7.5 6.25 7.5H19.75ZM24.25 0C24.8713 0 25.375 0.503685 25.375 1.125C25.375 1.74632 24.8713 2.25 24.25 2.25H1.75C1.12868 2.25 0.625 1.74632 0.625 1.125C0.625 0.503685 1.12868 0 1.75 0H24.25Z" fill="#212121"/>
</svg>
