<svg width="42" height="42" viewBox="0 0 42 42" fill="none" xmlns="http://www.w3.org/2000/svg">
<path d="M10.5 14C14.366 14 17.5 10.866 17.5 7C17.5 3.13402 14.366 0 10.5 0C6.63402 0 3.5 3.13402 3.5 7C3.5 10.866 6.63402 14 10.5 14ZM10.5 10.5C8.567 10.5 7 8.933 7 7C7 5.067 8.567 3.5 10.5 3.5C12.433 3.5 14 5.067 14 7C14 8.933 12.433 10.5 10.5 10.5ZM0 20.4167C0 18.1615 1.82817 16.3333 4.08333 16.3333H16.9167C19.1718 16.3333 21 18.1615 21 20.4167V31.5C21 37.299 16.299 42 10.5 42C4.70101 42 0 37.299 0 31.5V20.4167ZM4.08333 19.8333C3.76117 19.8333 3.5 20.0944 3.5 20.4167V31.5C3.5 35.3661 6.63402 38.5 10.5 38.5C14.366 38.5 17.5 35.3661 17.5 31.5V20.4167C17.5 20.0944 17.2389 19.8333 16.9167 19.8333H4.08333ZM17.5637 13.1002C18.5787 13.6731 19.751 14 20.9998 14C24.8656 14 27.9998 10.866 27.9998 7C27.9998 3.13402 24.8656 0 20.9998 0C19.751 0 18.5787 0.326923 17.5637 0.899826C18.3258 1.78141 18.9254 2.80712 19.3165 3.93055C19.8158 3.6561 20.3896 3.5 20.9998 3.5C22.9327 3.5 24.4998 5.067 24.4998 7C24.4998 8.933 22.9327 10.5 20.9998 10.5C20.3896 10.5 19.8158 10.3439 19.3165 10.0695C18.9254 11.1929 18.3258 12.2186 17.5637 13.1002ZM18.3405 41.6603C19.1898 41.8819 20.0809 42 20.9998 42C26.7986 42 31.4998 37.299 31.4998 31.5V20.4167C31.4998 18.1615 29.6716 16.3333 27.4164 16.3333H21.8664C22.6665 17.3021 23.1875 18.5099 23.307 19.8333H27.4164C27.7384 19.8333 27.9998 20.0944 27.9998 20.4167V31.5C27.9998 35.2786 25.0059 38.3579 21.2606 38.4951C20.471 39.7075 19.4822 40.778 18.3405 41.6603ZM28.0637 13.1002C29.0787 13.6731 30.251 14 31.4998 14C35.3656 14 38.4998 10.866 38.4998 7C38.4998 3.13402 35.3656 0 31.4998 0C30.251 0 29.0787 0.326923 28.0637 0.899826C28.8258 1.78141 29.4254 2.80712 29.8165 3.93055C30.3158 3.6561 30.8896 3.5 31.4998 3.5C33.4327 3.5 34.9998 5.067 34.9998 7C34.9998 8.933 33.4327 10.5 31.4998 10.5C30.8896 10.5 30.3158 10.3439 29.8165 10.0695C29.4254 11.1929 28.8258 12.2186 28.0637 13.1002ZM28.8405 41.6603C29.6898 41.8819 30.5809 42 31.4998 42C37.2986 42 41.9998 37.299 41.9998 31.5V20.4167C41.9998 18.1615 40.1716 16.3333 37.9164 16.3333H32.3664C33.1665 17.3021 33.6875 18.5099 33.807 19.8333H37.9164C38.2384 19.8333 38.4998 20.0944 38.4998 20.4167V31.5C38.4998 35.2786 35.5059 38.3579 31.7606 38.4951C30.971 39.7075 29.9822 40.778 28.8405 41.6603Z" fill="#0086B1"/>
</svg>
