<svg width="50" height="50" viewBox="0 0 50 50" fill="none" xmlns="http://www.w3.org/2000/svg">
<path d="M25.1667 2.4165C25.1667 1.45001 24.3832 0.666504 23.4167 0.666504C22.4502 0.666504 21.6667 1.45001 21.6667 2.4165V2.99984H8.25002C4.06185 2.99984 0.666687 6.395 0.666687 10.5832V32.7498C0.666687 36.9379 4.06185 40.3332 8.25002 40.3332H13.8464L10.4045 44.4629C9.78566 45.2054 9.8859 46.3088 10.6283 46.9276C11.3708 47.5464 12.4743 47.4463 13.0931 46.7039L18.4027 40.3332H26.5875C27.0026 38.8984 27.9014 37.6692 29.0953 36.8332H8.25002C5.99485 36.8332 4.16669 35.005 4.16669 32.7498V10.5832C4.16669 8.328 5.99485 6.49984 8.25002 6.49984H39.75C42.0052 6.49984 43.8334 8.328 43.8334 10.5832V23.1302C45.949 24.606 47.3334 27.0579 47.3334 29.8332V10.5832C47.3334 6.395 43.9381 2.99984 39.75 2.99984H25.1667V2.4165ZM10 14.0832C10 13.1167 10.7835 12.3332 11.75 12.3332H21.0834C22.0498 12.3332 22.8334 13.1167 22.8334 14.0832C22.8334 15.0497 22.0498 15.8332 21.0834 15.8332H11.75C10.7835 15.8332 10 15.0497 10 14.0832ZM11.75 19.3332C10.7835 19.3332 10 20.1167 10 21.0832C10 22.0496 10.7835 22.8332 11.75 22.8332H26.9167C27.8832 22.8332 28.6667 22.0496 28.6667 21.0832C28.6667 20.1167 27.8832 19.3332 26.9167 19.3332H11.75ZM10 28.0832C10 27.1167 10.7835 26.3332 11.75 26.3332H24.5834C25.5498 26.3332 26.3334 27.1167 26.3334 28.0832C26.3334 29.0496 25.5498 29.8332 24.5834 29.8332H11.75C10.7835 29.8332 10 29.0496 10 28.0832ZM45 29.8332C45 33.0548 42.3883 35.6665 39.1667 35.6665C35.9451 35.6665 33.3334 33.0548 33.3334 29.8332C33.3334 26.6115 35.9451 23.9998 39.1667 23.9998C42.3883 23.9998 45 26.6115 45 29.8332ZM49.6667 42.3748C49.6667 46.0067 46.6667 49.6665 39.1667 49.6665C31.6667 49.6665 28.6667 46.0204 28.6667 42.3748V42.1345C28.6667 39.8499 30.5187 37.9998 32.803 37.9998H45.5304C47.8147 37.9998 49.6667 39.8502 49.6667 42.1345V42.3748Z" fill="#874ED1"/>
</svg>
