<svg width="48" height="43" viewBox="0 0 48 43" fill="none" xmlns="http://www.w3.org/2000/svg">
<path d="M30.4166 28C32.6718 28 34.5 29.8282 34.5 32.0833L34.4974 34.3282C34.7697 39.4361 30.9717 42.021 24.1558 42.021C17.3683 42.021 13.5 39.4781 13.5 34.4167V32.0833C13.5 29.8282 15.3281 28 17.5833 28H30.4166ZM30.4166 31.5H17.5833C17.2611 31.5 17 31.7611 17 32.0833V34.4167C17 37.1611 19.0689 38.521 24.1558 38.521C29.2143 38.521 31.1458 37.2062 31 34.4213V32.0833C31 31.7611 30.7389 31.5 30.4166 31.5ZM4.74996 16.3333L14.9606 16.3336C14.7687 17.0793 14.6666 17.861 14.6666 18.6667C14.6666 19.0612 14.6911 19.4502 14.7387 19.8317L4.74996 19.8333C4.4278 19.8333 4.16663 20.0944 4.16663 20.4167V22.75C4.16663 25.4945 6.23552 26.8543 11.3225 26.8543C12.4002 26.8543 13.3361 26.7948 14.1401 26.674C12.8214 27.5093 11.8327 28.8143 11.4028 30.3525L11.3225 30.3543C4.53497 30.3543 0.666626 27.8115 0.666626 22.75V20.4167C0.666626 18.1615 2.49479 16.3333 4.74996 16.3333ZM43.25 16.3333C45.5051 16.3333 47.3333 18.1615 47.3333 20.4167L47.3307 22.6616C47.603 27.7695 43.8051 30.3543 36.9892 30.3543L36.5965 30.3504C36.1545 28.7705 35.123 27.437 33.754 26.6019C34.6563 26.771 35.7303 26.8543 36.9892 26.8543C42.0476 26.8543 43.9791 25.5395 43.8333 22.7547V20.4167C43.8333 20.0944 43.5722 19.8333 43.25 19.8333L33.2614 19.8315C33.3088 19.45 33.3333 19.0612 33.3333 18.6667C33.3333 17.861 33.2313 17.0793 33.0393 16.3336L43.25 16.3333ZM24 11.6667C27.8661 11.6667 31 14.8007 31 18.6667C31 22.5328 27.8661 25.6667 24 25.6667C20.1339 25.6667 17 22.5328 17 18.6667C17 14.8007 20.1339 11.6667 24 11.6667ZM24 15.1667C22.067 15.1667 20.5 16.7337 20.5 18.6667C20.5 20.5996 22.067 22.1667 24 22.1667C25.9329 22.1667 27.5 20.5996 27.5 18.6667C27.5 16.7337 25.9329 15.1667 24 15.1667ZM11.1666 0C15.0326 0 18.1666 3.13402 18.1666 7C18.1666 10.866 15.0326 14 11.1666 14C7.30064 14 4.16663 10.866 4.16663 7C4.16663 3.13402 7.30064 0 11.1666 0ZM36.8333 0C40.6994 0 43.8333 3.13402 43.8333 7C43.8333 10.866 40.6994 14 36.8333 14C32.9672 14 29.8333 10.866 29.8333 7C29.8333 3.13402 32.9672 0 36.8333 0ZM11.1666 3.5C9.23362 3.5 7.66663 5.067 7.66663 7C7.66663 8.933 9.23362 10.5 11.1666 10.5C13.0996 10.5 14.6666 8.933 14.6666 7C14.6666 5.067 13.0996 3.5 11.1666 3.5ZM36.8333 3.5C34.9004 3.5 33.3333 5.067 33.3333 7C33.3333 8.933 34.9004 10.5 36.8333 10.5C38.7662 10.5 40.3333 8.933 40.3333 7C40.3333 5.067 38.7662 3.5 36.8333 3.5Z" fill="#CD6F00"/>
</svg>
