<svg width="17" height="22" viewBox="0 0 17 22" fill="none" xmlns="http://www.w3.org/2000/svg">
<path d="M1.82665e-06 5.7491L0.00685159 5.8509C0.0565116 6.217 0.370302 6.4991 0.750002 6.4991L13.442 6.5L10.2244 9.7199L10.1518 9.804C9.9341 10.0977 9.9585 10.5144 10.2248 10.7806C10.5179 11.0733 10.9927 11.0731 11.2855 10.7801L15.7855 6.2763L15.8581 6.1922C16.0758 5.8985 16.0514 5.4818 15.7851 5.2157L11.2851 0.7194L11.2009 0.6469C10.9072 0.4291 10.4905 0.453501 10.2244 0.7199L10.1518 0.804001C9.9341 1.0977 9.9585 1.5144 10.2248 1.7806L13.446 5L0.750002 4.9991L0.648232 5.006C0.282152 5.0556 1.82665e-06 5.3694 1.82665e-06 5.7491ZM0.219692 16.7856L4.71474 21.2803L4.79886 21.353C5.09248 21.5708 5.50914 21.5466 5.7754 21.2803L5.84802 21.1962C6.0659 20.9026 6.0416 20.4859 5.77537 20.2196L2.55711 17.003L15.2549 17.0023L15.3567 16.9955C15.7228 16.9458 16.0049 16.632 16.0049 16.2523L15.9981 16.1506C15.9484 15.7845 15.6346 15.5023 15.2549 15.5023L2.55911 15.503L5.77596 12.2801L5.84849 12.1959C6.066 11.9021 6.0414 11.4855 5.77481 11.2195C5.4816 10.9269 5.00672 10.9274 4.71415 11.2206L0.219092 15.7255L0.146612 15.8096C-0.0707984 16.1032 -0.0463883 16.5195 0.219692 16.7856Z" fill="#8127B9"/>
</svg>
