<svg width="21" height="18" viewBox="0 0 21 18" fill="none" xmlns="http://www.w3.org/2000/svg">
<path d="M16.5105 8.245L17.0138 7.0581C17.2499 6.5015 17.8153 6.1987 18.3698 6.3143L18.4883 6.3455L19.1186 6.5469C19.7435 6.7466 20.2221 7.2819 20.3767 7.9542C20.744 9.5518 20.3033 11.4969 19.0546 13.7896C17.8078 16.0789 16.4412 17.4553 14.9549 17.919C14.3778 18.099 13.7578 17.9682 13.2915 17.5767L13.1683 17.4635L12.6896 16.9829C12.2748 16.5664 12.1893 15.9076 12.4675 15.3921L12.5381 15.2759L13.2596 14.2159C13.5434 13.7989 14.0291 13.6015 14.497 13.7012L14.624 13.7358L15.9559 14.18C16.4874 13.7778 16.9306 13.2715 17.2855 12.6612C17.5896 12.138 17.7886 11.6078 17.8823 11.0705L17.9204 10.8013L16.8114 9.7487C16.4461 9.4019 16.3134 8.862 16.4627 8.376L16.5105 8.245L17.0138 7.0581L16.5105 8.245ZM18.2454 0C19.488 0 20.4954 1.00736 20.4954 2.25L20.496 6.229C20.2434 5.99094 19.9484 5.79901 19.622 5.66655L19.4225 5.59431L18.995 5.457L18.9954 2.25C18.9954 1.83579 18.6596 1.5 18.2454 1.5H2.75C2.33579 1.5 2 1.83579 2 2.25V13.7546C2 14.1688 2.33579 14.5046 2.75 14.5046L5.499 14.504L5.5 11.75C5.5 10.8318 6.20711 10.0788 7.10647 10.0058L7.25 10H13.7447C14.6629 10 15.4159 10.7071 15.4889 11.6065L15.4947 11.75L15.494 12.972L14.9399 12.7872L14.7743 12.7391C14.5141 12.6746 14.2503 12.6601 13.994 12.6915L13.9947 11.75C13.9947 11.6317 13.9125 11.5325 13.802 11.5066L13.7447 11.5H7.25C7.13165 11.5 7.03251 11.5822 7.0066 11.6927L7 11.75L6.999 14.504H11.853L11.711 14.7132L11.6131 14.8702C11.4124 15.2221 11.3111 15.6136 11.3057 16.0044L2.75 16.0046C1.50736 16.0046 0.5 14.9972 0.5 13.7546V2.25C0.5 1.00736 1.50736 0 2.75 0H18.2454ZM10.5 3.00046C12.1569 3.00046 13.5 4.34361 13.5 6.0005C13.5 7.6573 12.1569 9.0005 10.5 9.0005C8.8431 9.0005 7.5 7.6573 7.5 6.0005C7.5 4.34361 8.8431 3.00046 10.5 3.00046ZM10.5 4.50046C9.6716 4.50046 9 5.17203 9 6.0005C9 6.8289 9.6716 7.5005 10.5 7.5005C11.3284 7.5005 12 6.8289 12 6.0005C12 5.17203 11.3284 4.50046 10.5 4.50046Z" fill="white"/>
</svg>
