<svg width="35" height="35" viewBox="0 0 35 35" fill="none" xmlns="http://www.w3.org/2000/svg">
<circle cx="17.5" cy="17.5" r="17.5" fill="#FF5E54"/>
<path d="M18.8876 16.5211C20.379 16.7056 21.5167 17.213 22.3009 18.0433C23.085 18.8735 23.4771 19.9114 23.4771 21.1568C23.4771 22.0947 23.2388 22.948 22.7622 23.7168C22.2855 24.4855 21.5629 25.1005 20.5942 25.5618C19.641 26.0077 18.4724 26.2306 17.0886 26.2306C15.9355 26.2306 14.8208 26.0692 13.7445 25.7463C12.6836 25.408 11.7765 24.9468 11.0231 24.3625L12.3146 22.0332C12.8989 22.5252 13.6061 22.9172 14.4364 23.2094C15.282 23.4861 16.1507 23.6245 17.0425 23.6245C18.1034 23.6245 18.9337 23.4093 19.5333 22.9787C20.1483 22.5329 20.4558 21.9332 20.4558 21.1798C20.4558 20.4264 20.1637 19.8422 19.5795 19.427C19.0106 18.9965 18.1342 18.7813 16.9503 18.7813H15.4742V16.7287L19.1413 12.3697H11.8072V9.85587H22.8083V11.8624L18.8876 16.5211Z" fill="white"/>
</svg>
