<svg width="26" height="16" viewBox="0 0 26 16" fill="none" xmlns="http://www.w3.org/2000/svg">
<path d="M1 7C0.447715 7 0 7.44772 0 8C0 8.55228 0.447715 9 1 9V7ZM24.9137 8.70711C25.3042 8.31658 25.3042 7.68342 24.9137 7.29289L18.5497 0.928932C18.1592 0.538408 17.526 0.538408 17.1355 0.928932C16.745 1.31946 16.745 1.95262 17.1355 2.34315L22.7924 8L17.1355 13.6569C16.745 14.0474 16.745 14.6805 17.1355 15.0711C17.526 15.4616 18.1592 15.4616 18.5497 15.0711L24.9137 8.70711ZM1 9H24.2066V7H1V9Z" fill="white"/>
</svg>
