<svg width="55" height="47" viewBox="0 0 55 47" fill="none" xmlns="http://www.w3.org/2000/svg">
<path d="M0 6.58613C0 4.83938 0.693305 3.16417 1.92739 1.92903C3.16148 0.693894 4.83527 0 6.58054 0H46.0638C47.809 0 49.4828 0.693894 50.7169 1.92903C51.951 3.16417 52.6443 4.83938 52.6443 6.58613V15.3984C52.3019 15.2232 51.949 15.0692 51.5877 14.9373L51.55 14.9223L51.1082 14.7755L49.7225 14.3578C49.4475 14.2744 49.1674 14.2091 48.884 14.1621V6.58613C48.884 5.83752 48.5869 5.11958 48.058 4.59023C47.5291 4.06088 46.8117 3.7635 46.0638 3.7635H6.58054C5.83257 3.7635 5.11523 4.06088 4.58633 4.59023C4.05744 5.11958 3.76031 5.83752 3.76031 6.58613V31.0489C3.76031 31.7975 4.05744 32.5154 4.58633 33.0448C5.11523 33.5741 5.83257 33.8715 6.58054 33.8715H15.0412V30.108C15.0412 29.1099 15.4374 28.1526 16.1426 27.4468C16.8478 26.741 17.8042 26.3445 18.8015 26.3445H33.8428C34.8401 26.3445 35.7965 26.741 36.5017 27.4468C37.2069 28.1526 37.6031 29.1099 37.6031 30.108V31.7621C36.8014 31.7607 36.0086 31.9303 35.2775 32.2597C34.5464 32.589 33.8939 33.0705 33.3633 33.6721L33.3182 33.7247L33.0606 34.0484L30.4735 37.635H6.58054C4.83527 37.635 3.16148 36.9411 1.92739 35.706C0.693305 34.4709 0 32.7956 0 31.0489V6.58613ZM33.8428 15.054C33.8428 17.0503 33.0504 18.9648 31.64 20.3764C30.2296 21.788 28.3167 22.581 26.3221 22.581C24.3276 22.581 22.4147 21.788 21.0043 20.3764C19.5939 18.9648 18.8015 17.0503 18.8015 15.054C18.8015 13.0577 19.5939 11.1432 21.0043 9.73161C22.4147 8.32003 24.3276 7.527 26.3221 7.527C28.3167 7.527 30.2296 8.32003 31.64 9.73161C33.0504 11.1432 33.8428 13.0577 33.8428 15.054ZM44.5333 18.8401C44.9496 18.0877 45.6108 17.5007 46.4068 17.1768C47.2029 16.8529 48.0857 16.8117 48.9084 17.06L50.2565 17.4664L50.6175 17.5868C51.7342 17.9957 52.7193 18.6998 53.4681 19.6242C54.217 20.5487 54.7016 21.6589 54.8704 22.8369C55.4288 26.7284 54.1804 31.2785 51.1703 36.4966C48.1677 41.7015 44.8623 45.0548 41.2242 46.5225C40.0553 46.9941 38.7757 47.1197 37.5375 46.8845C36.2992 46.6493 35.1546 46.0632 34.2395 45.1959L33.2204 44.2287L32.9911 43.9916C32.4243 43.3516 32.0923 42.5376 32.0496 41.6835C32.0068 40.8294 32.256 39.9863 32.756 39.2928L35.3074 35.7551L35.4785 35.5406C35.8368 35.1342 36.3045 34.8397 36.8256 34.6922C37.3467 34.5447 37.8993 34.5505 38.4172 34.7089L42.2734 35.8888L42.373 35.9076H42.4539C42.9145 35.8568 43.8508 34.9253 45.0015 32.9306C46.28 30.7139 46.5432 29.4174 46.1916 29.0825L44.2306 27.2534L43.9806 27.0031C43.3563 26.326 42.9447 25.4802 42.7969 24.5708C42.6492 23.6615 42.7718 22.7287 43.1495 21.8885L44.3942 19.1205L44.5333 18.8401Z" fill="black"/>
</svg>
