<svg width="50" height="47" viewBox="0 0 50 47" fill="none" xmlns="http://www.w3.org/2000/svg">
<path fill-rule="evenodd" clip-rule="evenodd" d="M29.0707 11.3762C31.6844 13.0537 34.0971 14.6021 36.7107 16.2796C35.7847 17.8994 34.9402 19.2594 34.1432 20.6782C33.8035 21.3401 33.4524 22.1083 33.2189 22.7817C32.8924 23.8212 32.9663 24.635 34.1366 25.2442C34.7037 25.4663 35.119 26.1018 35.5571 26.525C36.2323 27.2422 36.3535 28.1148 35.8734 29.0841C35.3933 30.0533 34.4864 30.4932 33.4715 30.438C31.6542 30.3504 29.9072 30.1091 28.2285 29.2304C24.8124 27.5205 21.5367 25.5033 18.5666 23.1429C18.0696 22.7672 17.6429 22.2378 17.3812 21.6725C16.6323 20.1414 17.5583 18.5216 19.186 18.374C20.106 18.3116 21.0033 18.4616 21.9005 18.6117C24.4746 19.1566 24.6607 18.4245 25.7404 16.8748C26.8429 15.1128 27.8392 13.3393 29.0707 11.3762Z" fill="#D5E1F0"/>
<path fill-rule="evenodd" clip-rule="evenodd" d="M29.0279 9.27618C28.66 8.69942 28.4229 8.40534 28.2447 8.06384C27.5545 6.48541 28.564 5.08944 30.2636 5.2719C32.0695 5.46577 33.8298 6.08456 34.9791 7.38992C36.3295 8.82433 38.0783 9.54934 39.5217 10.6176C40.4682 11.3102 41.297 12.0977 42.067 12.9325C42.6947 13.5909 42.7097 14.4521 42.1348 15.3037C41.5598 16.1554 40.8408 16.3468 39.9664 15.9843C38.8795 15.599 37.7452 15.1549 36.7873 14.5685C35.1201 13.5836 33.4528 12.5987 31.8558 11.4602C30.8506 10.815 29.8681 9.95737 29.0279 9.27618Z" fill="#D5E1F0"/>
<path fill-rule="evenodd" clip-rule="evenodd" d="M15.9222 41.7706C17.5793 36.8445 20.1582 32.3397 22.0752 27.4952C23.494 28.2923 24.8065 29.0779 26.2139 29.9811C24.4662 32.7485 22.2804 35.0927 20.1894 37.5545C19.7548 38.0989 19.3203 38.6432 18.827 39.235C18.0756 40.2288 17.2653 41.2701 16.4665 42.2052C16.3243 42.0287 16.1232 41.8997 15.9222 41.7706Z" fill="white"/>
<path fill-rule="evenodd" clip-rule="evenodd" d="M20.774 26.6035C18.9057 25.4896 17.2025 24.3397 16.1576 22.562C15.2436 21.067 15.4699 18.4587 16.8473 17.6394C17.7655 17.0933 19.2509 16.7692 20.1842 17.0843C22.7829 17.9006 24.2305 16.9277 25.225 14.6705C25.5172 13.9497 26.1168 13.3694 26.5627 12.7188C27.4546 11.4177 27.9575 10.2359 27.0189 8.46965C25.629 5.90274 27.8964 3.29865 30.6355 3.80761C32.7961 4.20074 34.6758 5.20843 36.3563 6.57082C37.4924 7.49868 38.8637 8.23689 39.941 9.21217C41.1719 10.2577 42.344 11.3506 43.2923 12.5269C44.1457 13.5856 44.1151 14.8717 43.2821 16.1255C42.449 17.3792 41.4245 17.9139 39.9715 17.4356C38.4597 17.0047 37.5415 17.5508 36.8621 18.8748C36.1125 20.3524 34.8545 21.5605 34.543 23.4612C34.8863 23.7667 35.2182 24.1784 35.6089 24.5427C35.9996 24.907 36.3315 25.3187 36.6634 25.7304C37.7785 27.3545 37.8901 28.8171 37.057 30.0708C36.1064 31.4194 34.3155 32.0867 32.6386 31.6918C31.2216 31.3785 29.7458 31.1126 28.2814 30.7405C27.4904 30.6019 27.1147 31.0988 26.6802 31.6431C25.3178 33.3236 24.0617 35.0154 22.6993 36.6959C20.9024 38.9207 19.1054 41.1455 17.3674 43.3228C16.745 44.1156 16.0524 45.0621 14.9769 44.5706C13.9014 44.079 14.393 43.0035 14.5904 42.1651C15.1222 39.2135 16.7294 36.7534 17.8284 34.0239C18.7394 31.5428 20.1703 29.225 20.774 26.6035ZM29.0708 11.3763C27.8393 13.3394 26.843 15.1129 25.6457 16.7573C24.5659 18.3069 24.3799 19.0391 21.8058 18.4941C20.9086 18.3441 20.0113 18.194 19.0913 18.2564C17.4636 18.4041 16.5375 20.0239 17.2865 21.5549C17.5482 22.1203 17.9749 22.6496 18.4718 23.0253C21.4894 25.4446 24.7177 27.403 28.1338 29.1129C29.8125 29.9915 31.6184 30.1854 33.3768 30.3204C34.3917 30.3757 35.346 29.9946 35.7787 28.9665C36.2 28.0447 36.0788 27.172 35.4624 26.4074C35.0357 25.8781 34.609 25.3487 34.0419 25.1266C32.919 24.5763 32.7389 23.7511 33.1242 22.6642C33.4165 21.9434 33.7088 21.2226 34.0485 20.5606C34.8455 19.1418 35.69 17.7819 36.616 16.162C34.0972 14.6022 31.6845 13.0537 29.0708 11.3763ZM29.0276 9.27629C29.8679 9.95748 30.8503 10.8151 31.903 11.5191C33.5588 12.6102 35.1673 13.6425 36.8345 14.6274C37.8512 15.1664 38.9381 15.5517 40.0724 15.9958C40.9468 16.3583 41.7246 16.1195 42.2408 15.3153C42.7569 14.511 42.7893 13.7086 42.173 12.944C41.3556 12.0504 40.4679 11.3103 39.5803 10.5703C38.0895 9.44322 36.3406 8.7182 35.0377 7.34262C33.8296 6.08466 32.0693 5.46588 30.3222 5.2246C28.6226 5.04213 27.6017 6.54433 28.2444 8.06395C28.4227 8.40544 28.6597 8.69953 29.0276 9.27629ZM15.9222 41.7708C16.1232 41.8998 16.3243 42.0289 16.5253 42.1579C17.2768 41.164 18.087 40.1228 18.8858 39.1877C19.3203 38.6434 19.7549 38.099 20.2482 37.5073C22.3392 35.0454 24.525 32.7012 26.2727 29.9339C24.8539 29.1368 23.5414 28.3512 22.134 27.448C20.1582 32.3399 17.5793 36.8447 15.9222 41.7708Z" fill="#5E87C5"/>
</svg>
