<svg width="21" height="21" viewBox="0 0 21 21" fill="none" xmlns="http://www.w3.org/2000/svg">
<path fill-rule="evenodd" clip-rule="evenodd" d="M10.3083 0.116211C7.57872 0.116211 7.23702 0.127601 6.16502 0.176511C5.09503 0.225421 4.36406 0.395601 3.72488 0.644171C3.05488 0.896091 2.44719 1.29139 1.94469 1.80327C1.43363 2.30519 1.03809 2.91245 0.785591 3.58279C0.538361 4.22197 0.367511 4.95361 0.318601 6.0236C0.270361 7.09493 0.258301 7.43596 0.258301 10.1662C0.258301 12.8965 0.269691 13.2375 0.318601 14.3095C0.367511 15.3795 0.537691 16.1105 0.786261 16.7496C1.03818 17.4196 1.43348 18.0273 1.94536 18.5298C2.44729 19.0409 3.05455 19.4364 3.72488 19.6889C4.36406 19.9368 5.09503 20.107 6.16502 20.1559C7.23702 20.2048 7.57872 20.2162 10.3083 20.2162C13.0379 20.2162 13.3796 20.2048 14.4516 20.1559C15.5216 20.107 16.2525 19.9368 16.8917 19.6883C17.5617 19.4363 18.1694 19.041 18.6719 18.5292C19.183 18.0272 19.5785 17.42 19.831 16.7496C20.0789 16.1105 20.2491 15.3795 20.298 14.3095C20.3469 13.2375 20.3583 12.8958 20.3583 10.1662C20.3583 7.43663 20.3469 7.09493 20.298 6.02293C20.2491 4.95294 20.0789 4.22197 19.8303 3.58279C19.578 2.91216 19.1825 2.30465 18.6712 1.8026C18.1693 1.29154 17.5621 0.895996 16.8917 0.643501C16.2525 0.396271 15.5209 0.225421 14.4509 0.176511C13.3796 0.128271 13.0386 0.116211 10.3083 0.116211ZM10.3083 1.92722C12.9917 1.92722 13.3099 1.93727 14.3698 1.98551C15.3494 2.0304 15.8814 2.19321 16.2358 2.3319C16.7048 2.51347 17.0398 2.73189 17.3915 3.08297C17.7433 3.43472 17.961 3.76972 18.1426 4.23872C18.2806 4.59315 18.4441 5.12513 18.489 6.10467C18.5372 7.16461 18.5473 7.48286 18.5473 10.1662C18.5473 12.8496 18.5372 13.1678 18.489 14.2278C18.4441 15.2073 18.2813 15.7393 18.1426 16.0937C17.9818 16.5302 17.7251 16.9252 17.3915 17.2495C17.0673 17.5831 16.6724 17.8398 16.2358 18.0005C15.8814 18.1385 15.3494 18.302 14.3698 18.3469C13.3099 18.3952 12.9923 18.4052 10.3083 18.4052C7.62428 18.4052 7.3067 18.3952 6.24676 18.3469C5.26722 18.302 4.73524 18.1392 4.38081 18.0005C3.94428 17.8397 3.54935 17.583 3.22506 17.2495C2.89152 16.9251 2.63488 16.5302 2.47399 16.0937C2.33597 15.7393 2.17249 15.2073 2.1276 14.2278C2.07936 13.1678 2.06931 12.8496 2.06931 10.1662C2.06931 7.48286 2.07936 7.16461 2.1276 6.10467C2.17249 5.12513 2.3353 4.59315 2.47399 4.23872C2.65556 3.76972 2.87398 3.43472 3.22506 3.08297C3.5493 2.74934 3.94425 2.49268 4.38081 2.3319C4.73524 2.19388 5.26722 2.0304 6.24676 1.98551C7.3067 1.93727 7.62495 1.92722 10.3083 1.92722Z" fill="#8127B9"/>
<path fill-rule="evenodd" clip-rule="evenodd" d="M10.3083 13.5195C9.86791 13.5195 9.43185 13.4327 9.02501 13.2642C8.61816 13.0957 8.24849 12.8487 7.9371 12.5373C7.62571 12.2259 7.37871 11.8562 7.21019 11.4494C7.04166 11.0425 6.95493 10.6065 6.95493 10.1661C6.95493 9.72575 7.04166 9.2897 7.21019 8.88285C7.37871 8.476 7.62571 8.10633 7.9371 7.79495C8.24849 7.48356 8.61816 7.23655 9.02501 7.06803C9.43185 6.89951 9.86791 6.81277 10.3083 6.81277C11.1976 6.81277 12.0506 7.16607 12.6795 7.79495C13.3083 8.42382 13.6616 9.27676 13.6616 10.1661C13.6616 11.0555 13.3083 11.9084 12.6795 12.5373C12.0506 13.1662 11.1976 13.5195 10.3083 13.5195ZM10.3083 5.00042C8.93825 5.00042 7.62433 5.54466 6.65558 6.51342C5.68682 7.48218 5.14258 8.79609 5.14258 10.1661C5.14258 11.5362 5.68682 12.8501 6.65558 13.8188C7.62433 14.7876 8.93825 15.3318 10.3083 15.3318C11.6783 15.3318 12.9922 14.7876 13.961 13.8188C14.9297 12.8501 15.474 11.5362 15.474 10.1661C15.474 8.79609 14.9297 7.48218 13.961 6.51342C12.9922 5.54466 11.6783 5.00042 10.3083 5.00042ZM16.9768 4.90662C16.9768 5.23047 16.8481 5.54106 16.6191 5.77005C16.3901 5.99905 16.0796 6.1277 15.7557 6.1277C15.4319 6.1277 15.1213 5.99905 14.8923 5.77005C14.6633 5.54106 14.5346 5.23047 14.5346 4.90662C14.5346 4.58277 14.6633 4.27219 14.8923 4.04319C15.1213 3.8142 15.4319 3.68555 15.7557 3.68555C16.0796 3.68555 16.3901 3.8142 16.6191 4.04319C16.8481 4.27219 16.9768 4.58277 16.9768 4.90662Z" fill="#8127B9"/>
</svg>
