<svg width="48" height="40" viewBox="0 0 48 40" fill="#000000" xmlns="http://www.w3.org/2000/svg">
<path d="M44.3077 0H3.69231C2.71305 0 1.77389 0.383116 1.08145 1.06507C0.38901 1.74702 0 2.67194 0 3.63636V36.3636C0 37.3281 0.38901 38.253 1.08145 38.9349C1.77389 39.6169 2.71305 40 3.69231 40H6.78462C7.13419 40.001 7.47668 39.9029 7.77127 39.7176C8.06586 39.5322 8.30013 39.2673 8.44615 38.9545C9.34945 37.0927 10.7693 35.5207 12.5417 34.4203C14.314 33.3198 16.3664 32.7358 18.4615 32.7358C20.5567 32.7358 22.6091 33.3198 24.3814 34.4203C26.1537 35.5207 27.5736 37.0927 28.4769 38.9545C28.6229 39.2673 28.8572 39.5322 29.1518 39.7176C29.4464 39.9029 29.7889 40.001 30.1385 40H44.3077C45.287 40 46.2261 39.6169 46.9185 38.9349C47.611 38.253 48 37.3281 48 36.3636V3.63636C48 2.67194 47.611 1.74702 46.9185 1.06507C46.2261 0.383116 45.287 0 44.3077 0ZM18.4615 29.0909C17.001 29.0909 15.5733 28.6644 14.3589 27.8652C13.1445 27.0661 12.198 25.9302 11.639 24.6013C11.0801 23.2724 10.9339 21.8101 11.2188 20.3993C11.5038 18.9886 12.2071 17.6927 13.2398 16.6756C14.2726 15.6585 15.5884 14.9658 17.0209 14.6852C18.4533 14.4046 19.9381 14.5486 21.2875 15.0991C22.6369 15.6495 23.7902 16.5817 24.6016 17.7777C25.4131 18.9737 25.8462 20.3798 25.8462 21.8182C25.8401 23.7452 25.0601 25.5915 23.6765 26.9542C22.293 28.3168 20.4182 29.0849 18.4615 29.0909ZM44.3077 36.3636H31.2462C30.4463 34.9974 29.4251 33.7691 28.2231 32.7273H38.7692C39.2589 32.7273 39.7284 32.5357 40.0747 32.1947C40.4209 31.8538 40.6154 31.3913 40.6154 30.9091V9.09091C40.6154 8.6087 40.4209 8.14623 40.0747 7.80526C39.7284 7.46428 39.2589 7.27273 38.7692 7.27273H9.23077C8.74114 7.27273 8.27156 7.46428 7.92534 7.80526C7.57912 8.14623 7.38462 8.6087 7.38462 9.09091V30.9091C7.38696 31.3104 7.52404 31.6996 7.77449 32.0162C8.02494 32.3327 8.3747 32.5588 8.76923 32.6591C7.53805 33.7175 6.49317 34.9693 5.67692 36.3636H3.69231V3.63636H44.3077V36.3636Z" fill="#white"/>
</svg>
