<svg width="28" height="31" viewBox="0 0 28 31" fill="none" xmlns="http://www.w3.org/2000/svg">
<path d="M14.0002 0.994141C20.075 0.994141 25.0352 5.78627 25.2439 11.8677L25.2502 12.2441V18.3897L27.3202 23.1237C27.4238 23.3605 27.4772 23.6163 27.4772 23.8749C27.4772 24.9103 26.6378 25.7499 25.6022 25.7499L18.5002 25.7521C18.5002 28.2373 16.4855 30.2521 14.0002 30.2521C11.6036 30.2521 9.64468 28.3786 9.5078 26.0164L9.49949 25.7487L2.41247 25.7499C2.15546 25.7499 1.9012 25.6969 1.66546 25.5946C0.715659 25.182 0.280134 24.0777 0.692694 23.1279L2.75017 18.391V12.244C2.75107 6.01181 7.77831 0.994141 14.0002 0.994141ZM16.2496 25.7487L11.7502 25.7521C11.7502 26.9947 12.7576 28.0021 14.0002 28.0021C15.1697 28.0021 16.1309 27.1098 16.2398 25.9687L16.2496 25.7487ZM14.0002 3.24414C9.01993 3.24414 5.00089 7.25553 5.00017 12.2441V18.8586L2.9842 23.4999H25.0289L23.0002 18.8601L23.0003 12.2634L22.9948 11.9256C22.8281 7.07541 18.8626 3.24414 14.0002 3.24414Z" fill="#212121"/>
</svg>
