<svg width="46" height="46" viewBox="0 0 46 46" fill="none" xmlns="http://www.w3.org/2000/svg">
<path d="M39.1 4.6H34.5V2.3C34.5 1.69 34.2577 1.10499 33.8263 0.673654C33.395 0.242321 32.81 0 32.2 0C31.59 0 31.005 0.242321 30.5737 0.673654C30.1423 1.10499 29.9 1.69 29.9 2.3V4.6H16.1V2.3C16.1 1.69 15.8577 1.10499 15.4263 0.673654C14.995 0.242321 14.41 0 13.8 0C13.19 0 12.605 0.242321 12.1737 0.673654C11.7423 1.10499 11.5 1.69 11.5 2.3V4.6H6.9C5.07001 4.6 3.31496 5.32696 2.02096 6.62096C0.726962 7.91496 0 9.67001 0 11.5V39.1C0 40.93 0.726962 42.685 2.02096 43.979C3.31496 45.273 5.07001 46 6.9 46H39.1C40.93 46 42.685 45.273 43.979 43.979C45.273 42.685 46 40.93 46 39.1V11.5C46 9.67001 45.273 7.91496 43.979 6.62096C42.685 5.32696 40.93 4.6 39.1 4.6ZM41.4 39.1C41.4 39.71 41.1577 40.295 40.7263 40.7263C40.295 41.1577 39.71 41.4 39.1 41.4H6.9C6.29 41.4 5.70499 41.1577 5.27365 40.7263C4.84232 40.295 4.6 39.71 4.6 39.1V23H41.4V39.1ZM41.4 18.4H4.6V11.5C4.6 10.89 4.84232 10.305 5.27365 9.87365C5.70499 9.44232 6.29 9.2 6.9 9.2H11.5V11.5C11.5 12.11 11.7423 12.695 12.1737 13.1263C12.605 13.5577 13.19 13.8 13.8 13.8C14.41 13.8 14.995 13.5577 15.4263 13.1263C15.8577 12.695 16.1 12.11 16.1 11.5V9.2H29.9V11.5C29.9 12.11 30.1423 12.695 30.5737 13.1263C31.005 13.5577 31.59 13.8 32.2 13.8C32.81 13.8 33.395 13.5577 33.8263 13.1263C34.2577 12.695 34.5 12.11 34.5 11.5V9.2H39.1C39.71 9.2 40.295 9.44232 40.7263 9.87365C41.1577 10.305 41.4 10.89 41.4 11.5V18.4Z" fill="#303030"/>
</svg>
