<svg width="41" height="73" viewBox="0 0 41 73" fill="none" xmlns="http://www.w3.org/2000/svg">
<g clip-path="url(#clip0_42_1386)">
<path fill-rule="evenodd" clip-rule="evenodd" d="M3.22719 67.2812C1.68041 63.363 0.239573 59.6522 -1.25273 55.9678C-2.53163 52.8282 -3.88849 49.6631 -5.1674 46.5235C-5.43377 45.8749 -5.59721 45.1737 -5.78563 44.5506C-6.64525 41.8508 -7.52986 39.2292 -8.36299 36.5813C-9.30509 33.466 -10.634 30.4827 -11.9628 27.4995C-12.1217 27.1883 -12.0998 26.8501 -12.2072 26.5126C-1.82786 21.9312 8.55301 17.4797 18.3467 11.4972C19.4137 14.2219 20.3232 16.7653 21.3623 19.3081C22.4543 21.9546 23.3139 24.6543 24.097 27.4585C24.6093 29.224 25.5084 30.8574 26.253 32.5696C27.1861 34.9049 28.1192 37.2402 29.1037 39.5492C30.0353 41.7545 30.9933 44.0116 31.8734 46.2432C32.5931 48.0336 33.2877 49.9021 33.9559 51.7187C34.0899 52.1081 34.3018 52.523 34.4357 52.9123C31.5035 54.5406 28.6772 56.3764 25.5875 57.8235C23.1919 58.8507 20.8243 60.0599 18.2463 60.9841C15.333 62.0142 12.6331 63.5892 9.79932 64.7749C7.73904 65.6963 5.57281 66.4102 3.22719 67.2812Z" fill="white"/>
<path fill-rule="evenodd" clip-rule="evenodd" d="M10.4174 4.10354C10.5618 5.40297 11.14 6.15394 11.9506 6.85163C13.3364 8.04026 14.95 8.78557 16.4871 9.63532C16.774 9.81578 17.0608 9.99624 17.4786 10.306C17.0933 10.5682 16.8375 10.8296 16.4772 11.0136C15.192 11.8008 13.9582 12.5616 12.62 13.245C11.3597 13.954 10.0995 14.663 8.78628 15.2683C5.82604 16.7147 2.94676 18.4468 -0.198898 19.5301C-1.15334 19.8214 -1.97535 20.372 -2.92828 20.7932C-5.65767 22.0564 -8.38555 23.4495 -11.1944 24.557C-13.1268 25.3477 -15.1386 25.9828 -17.3153 25.7867C-18.4037 25.6886 -19.1848 25.3028 -19.7145 24.2655C-20.1648 23.3838 -20.0959 22.6293 -19.4828 21.9238C-18.2066 20.3566 -16.8244 18.9968 -15.2599 17.7401C-11.3602 14.7023 -7.0103 12.5461 -2.68837 10.2081C-0.141389 8.842 2.53803 7.73518 5.13799 6.47277C6.39974 5.89378 7.60852 5.21107 8.87027 4.63208C9.28203 4.42179 9.74676 4.31524 10.4174 4.10354ZM7.74215 10.0471C5.50098 10.9955 3.2598 11.9439 1.09808 13.0479C-3.6356 15.5962 -8.3428 18.1964 -13.05 20.7965C-13.2559 20.9017 -13.5132 21.0331 -13.6661 21.242C-13.7676 21.4245 -13.816 21.7109 -13.8895 22.0753C-6.53234 18.0565 0.56593 14.039 7.74215 10.0471ZM-15.3872 20.1592C-15.3342 20.2629 -15.2033 20.3922 -15.1503 20.4959C-15.0209 20.4952 -14.865 20.5464 -14.7106 20.4675C-8.30938 16.6099 -1.95968 12.7786 4.41501 8.86912C3.35763 9.21296 2.38121 9.84239 1.42978 10.3937C-3.66269 13.256 -8.75515 16.1183 -13.7697 19.0061C-14.3873 19.3216 -14.874 19.7663 -15.3872 20.1592ZM-7.43321 20.7398C-7.38023 20.8436 -7.37873 20.9736 -7.29927 21.1292C-7.09189 21.154 -6.85802 21.2308 -6.78156 21.1263C-1.53469 18.1852 3.76365 15.2177 9.01052 12.2766C3.4753 14.9073 -2.19085 17.4086 -7.43321 20.7398Z" fill="white"/>
<path fill-rule="evenodd" clip-rule="evenodd" d="M-18.621 27.0416C-16.8355 26.9798 -15.1795 26.9188 -13.472 26.8314C-12.7303 28.2836 -11.9357 29.8396 -11.1411 31.3955C-10.9027 31.8623 -10.7408 32.4335 -10.5539 32.9265C-9.69878 35.2362 -8.84367 37.546 -8.06652 39.8301C-6.40476 44.7359 -5.15475 49.8519 -2.66798 54.4671C-1.87337 56.023 -1.38757 57.7366 -0.747367 59.3714C0.0532646 61.4474 0.878879 63.4452 1.67951 65.5212C1.9194 66.118 2.10782 66.7411 2.29623 67.3641C1.31982 67.9936 0.309395 67.9211 -0.674543 67.9005C-1.06282 67.9026 -1.56006 67.4372 -1.82342 67.0486C-2.35015 66.2713 -2.74896 65.3634 -3.12129 64.5072C-4.92692 60.5904 -6.73256 56.6737 -7.99701 52.5459C-8.05149 52.3121 -8.18393 52.0528 -8.34134 51.8716C-9.4523 49.8234 -10.0735 47.5904 -11.0036 45.5151C-12.9727 40.8971 -14.3491 36.0418 -16.7814 31.6603C-17.5745 30.2344 -18.0073 28.6245 -18.621 27.0416Z" fill="#D5E1F0"/>
<path fill-rule="evenodd" clip-rule="evenodd" d="M17.9779 24.3715C18.811 27.0194 19.6691 29.5892 20.5288 32.2889C17.1098 34.3619 13.398 35.7344 9.92455 37.5737C6.39965 39.4393 2.87474 41.3049 -0.520737 43.1697C-2.04043 41.5917 -3.45328 38.0629 -3.60828 35.8533C-1.03632 34.4091 1.53565 32.9648 4.15909 31.4942C6.47371 30.1813 8.86628 28.894 11.2074 27.633C12.5706 26.8715 14.0647 26.2392 15.4544 25.5295C16.072 25.2141 16.6631 24.8468 17.2808 24.5314C17.3572 24.4269 17.6161 24.4255 17.9779 24.3715ZM-0.788307 37.9443C-0.477985 37.9166 -0.114689 37.9926 0.142658 37.8612C1.5838 37.1252 2.94699 36.3636 4.38813 35.6276C5.75132 34.8661 7.08953 34.1826 8.45271 33.4211C10.3306 32.3966 12.2085 31.3722 14.0864 30.3478C14.8069 29.9798 15.476 29.6381 16.2231 29.3219C16.6613 29.1635 17.3584 29.0037 17.1185 28.4069C16.8771 27.6801 16.2875 28.1774 15.8493 28.3358C15.6949 28.4147 15.489 28.5198 15.3346 28.5987C14.2802 29.2025 13.2008 29.8845 12.12 30.4365C8.0539 32.5131 4.0143 34.6415 0.0261751 36.7436C-0.38558 36.9539 -0.953248 37.1131 -0.788307 37.9443ZM0.734401 39.7823C0.787375 39.886 0.840349 39.9897 0.893323 40.0935C1.25511 40.0395 1.64339 40.0374 1.90074 39.9059C2.95661 39.4321 3.95952 38.8545 4.93743 38.3551C8.71968 36.3581 12.477 34.4393 16.2857 32.4941C16.7489 32.2576 17.1872 32.0991 17.1282 31.4754C16.6309 31.01 16.2192 31.2203 15.756 31.4568C15.3192 31.7453 14.831 32.06 14.3678 32.2966C10.0194 34.5827 5.64446 36.817 1.32254 39.155C1.11666 39.2601 0.938774 39.5471 0.734401 39.7823Z" fill="white"/>
<path fill-rule="evenodd" clip-rule="evenodd" d="M-4.9711 9.8044C-2.602 8.72528 -0.257884 7.7243 2.08473 6.59332C3.6553 5.85662 5.09343 4.8606 6.664 4.12389C7.92575 3.54491 9.24048 3.06964 10.5817 2.64625C11.6391 2.30241 12.0848 2.79406 11.7351 3.88816C11.5367 4.64337 11.7252 5.26644 12.1959 5.67994C12.9285 6.35205 13.7626 6.84158 14.6481 7.30482C16.0293 8.10341 17.487 8.79757 18.8683 9.59616C19.1286 9.72476 19.3655 10.0615 19.5244 10.3727C21.0197 14.3172 22.515 18.2617 24.0104 22.2062C24.1163 22.4136 24.1973 22.6993 24.2517 22.933C24.8215 25.1923 25.5192 27.3208 26.4758 29.4479C28.3888 33.7022 29.9931 38.1142 31.7253 42.3954C32.7378 44.8863 33.8283 47.4028 34.8923 49.8674C35.1322 50.4642 35.5265 50.9821 35.9208 51.5001C36.7624 52.6397 36.7419 53.1078 35.5346 53.9206C35.3552 54.0776 35.0979 54.209 34.9185 54.366C32.5524 55.7052 30.1084 57.0187 27.7158 58.306C26.9437 58.7003 26.0673 59.0171 25.2952 59.4114C24.4452 59.7801 23.5967 60.2788 22.7467 60.6476C22.4379 60.8053 22.1556 61.0148 21.8203 61.1207C17.7701 62.339 14.1968 64.4909 10.3056 66.0204C7.29084 67.2331 4.25264 68.6539 0.94355 69.036C0.0905415 69.1447 -0.841926 69.0978 -1.74941 68.9727C-2.37156 68.8981 -2.76586 68.3802 -3.05721 67.8097C-3.90781 65.89 -4.80987 63.9966 -5.609 62.0507C-6.93937 58.9374 -8.11534 55.7453 -9.34277 52.5795C-9.42373 52.2939 -9.58266 51.9827 -9.76656 51.7496C-10.8435 50.4033 -11.1469 48.7927 -11.6312 47.2091C-12.061 45.8592 -12.9555 44.6159 -13.3339 43.2397C-14.5234 38.8775 -16.6923 34.8846 -18.501 30.7078C-19.3251 28.84 -20.433 27.0517 -21.0762 25.1569C-21.4781 23.9889 -21.4696 22.4806 -20.6536 21.41C-19.5069 19.8435 -18.3601 18.2769 -16.6896 17.2276C-15.3794 16.3623 -14.2531 15.264 -12.9678 14.4769C-10.7826 13.1647 -8.54446 11.9563 -6.33278 10.696C-5.86956 10.4594 -5.35486 10.1966 -4.89164 9.95999C-4.91812 9.90812 -4.94461 9.85626 -4.9711 9.8044ZM3.22717 67.2813C5.57279 66.4103 7.73902 65.6964 9.7993 64.775C12.6331 63.5893 15.333 62.0143 18.2463 60.9842C20.8243 60.06 23.1919 58.8508 25.6125 57.7454C28.6507 56.3246 31.5284 54.4626 34.4607 52.8343C34.3267 52.4449 34.1149 52.03 33.9809 51.6407C33.3127 49.824 32.618 47.9555 31.8984 46.1651C31.0183 43.9336 30.0088 41.7027 29.1287 39.4711C28.1956 37.1358 27.2625 34.8005 26.278 32.4915C25.5848 30.753 24.6343 29.1459 24.122 27.3804C23.3653 24.6281 22.4792 21.8765 21.3872 19.23C20.3747 16.7391 19.4651 14.1957 18.3716 11.4192C8.57798 17.4017 -1.82938 21.8013 -12.1823 26.4346C-12.1013 26.7202 -12.0968 27.1102 -11.9379 27.4214C-10.5575 30.3784 -9.28013 33.3879 -8.33803 36.5033C-7.55636 39.1775 -6.64527 41.8509 -5.76067 44.4725C-5.54576 45.1475 -5.38232 45.8487 -5.14243 46.4455C-3.86353 49.585 -2.50667 52.7502 -1.22777 55.8897C0.239551 59.6523 1.68039 63.3631 3.22717 67.2813ZM10.4174 4.10339C9.79821 4.2888 9.28202 4.42165 8.87026 4.63193C7.60851 5.21092 6.39973 5.89363 5.13797 6.47262C2.53802 7.73504 -0.141402 8.84186 -2.68839 10.208C-6.95884 12.5197 -11.3602 14.7021 -15.2084 17.7136C-16.773 18.9704 -18.2066 20.3565 -19.4313 21.8974C-20.0179 22.6547 -20.0619 23.3311 -19.6631 24.2391C-19.1333 25.2763 -18.3523 25.6621 -17.2639 25.7602C-15.0871 25.9564 -13.0753 25.3213 -11.1429 24.5306C-8.33409 23.4231 -5.60621 22.0299 -2.87683 20.7668C-1.97536 20.3718 -1.10189 19.7949 -0.147444 19.5037C3.0247 18.4722 5.90398 16.7402 8.91569 15.2675C10.2024 14.6103 11.4892 13.9532 12.7494 13.2442C14.0611 12.5089 15.2949 11.748 16.6066 11.0127C16.9154 10.855 17.1713 10.5936 17.608 10.3052C17.1902 9.99539 16.8769 9.76306 16.6165 9.63446C15.0279 8.811 13.4143 8.06569 12.08 6.85077C11.14 6.15379 10.5618 5.40282 10.4174 4.10339ZM-18.6211 27.0418C-18.0338 28.5729 -17.601 30.1828 -16.8079 31.6087C-14.3491 36.042 -12.9727 40.8973 -10.9522 45.4891C-10.0221 47.5643 -9.45232 49.8236 -8.2899 51.8456C-8.18396 52.053 -8.05152 52.3124 -7.94557 52.5198C-6.68112 56.6476 -4.87548 60.5644 -3.06985 64.4812C-2.69753 65.3373 -2.29871 66.2453 -1.77198 67.0225C-1.50862 67.4112 -1.03787 67.8247 -0.623104 67.8744C0.360834 67.895 1.37126 67.9675 2.34767 67.3381C2.15925 66.715 1.97084 66.0919 1.73095 65.4952C0.930317 63.4192 0.104703 61.4213 -0.695927 59.3454C-1.33613 57.7106 -1.82193 55.997 -2.61654 54.441C-5.05184 49.7996 -6.27536 44.7354 -8.01508 39.8041C-8.81872 37.4681 -9.69881 35.2365 -10.5024 32.9005C-10.6894 32.4074 -10.8513 31.8362 -11.0897 31.3694C-11.8843 29.8135 -12.6789 28.2576 -13.4205 26.8054C-15.1795 26.919 -16.8356 26.9801 -18.6211 27.0418Z" fill="#5E87C5"/>
<path fill-rule="evenodd" clip-rule="evenodd" d="M-0.893934 44.4717C-3.02133 41.8309 -4.03837 38.95 -5.0834 35.8872C-4.5952 35.5725 -4.15996 35.154 -3.5938 34.8649C1.16487 32.2384 5.92353 29.612 10.6557 26.9337C12.8424 25.7516 15.0026 24.5176 17.1628 23.2836C18.2172 22.6797 18.529 22.782 18.9044 23.8982C19.708 26.2342 20.5116 28.5702 21.2888 30.8543C21.3433 31.088 21.3978 31.3218 21.5302 31.5811C22.0864 32.6702 22.0614 32.7484 20.9541 33.2485C16.5777 35.3528 12.1498 37.4833 7.79989 39.6394C5.53523 40.796 3.32355 42.0563 1.08538 43.2647C0.442767 43.6583 -0.199849 44.0519 -0.893934 44.4717ZM17.9779 24.3713C17.5646 24.4516 17.3308 24.3748 17.1764 24.4537C16.5587 24.7691 15.9676 25.1364 15.35 25.4518C13.9603 26.1615 12.4927 26.8457 11.103 27.5554C8.76187 28.8164 6.39578 30.1555 4.05468 31.4165C1.43124 32.8871 -1.14073 34.3314 -3.71269 35.7757C-3.60916 38.0115 -2.11836 41.5659 -0.625147 43.092C2.84829 41.2528 6.37319 39.3872 9.82014 37.4961C13.2936 35.6568 17.0833 34.3098 20.4243 32.2112C19.6692 29.5889 18.8375 27.0711 17.9779 24.3713Z" fill="#5E87C5"/>
<path fill-rule="evenodd" clip-rule="evenodd" d="M7.74215 10.0472C0.565927 14.039 -6.55883 18.0046 -13.9144 22.1535C-13.7895 21.7627 -13.7925 21.5027 -13.6911 21.3201C-13.5382 21.1113 -13.3323 21.0061 -13.075 20.8747C-8.36778 18.2745 -3.68707 15.6225 1.0731 13.1261C3.2598 11.944 5.52746 11.0474 7.74215 10.0472Z" fill="#5E87C5"/>
<path fill-rule="evenodd" clip-rule="evenodd" d="M-15.3872 20.1588C-14.874 19.7659 -14.3873 19.3212 -13.7697 19.0058C-8.75518 16.1179 -3.66271 13.2556 1.37828 10.4196C2.32971 9.8683 3.25466 9.26515 4.36351 8.89503C-1.98619 12.7264 -8.36088 16.6358 -14.7621 20.4934C-14.865 20.546 -15.0209 20.4949 -15.2018 20.5218C-15.2033 20.3918 -15.3342 20.2625 -15.3872 20.1588Z" fill="#5E87C5"/>
<path fill-rule="evenodd" clip-rule="evenodd" d="M-7.43323 20.7396C-2.19087 17.4084 3.47528 14.9071 9.0105 12.2764C3.76363 15.2175 -1.53471 18.185 -6.78159 21.1261C-6.93599 21.205 -7.11839 21.102 -7.29929 21.129C-7.30079 20.9989 -7.38026 20.8433 -7.43323 20.7396Z" fill="#5E87C5"/>
<path fill-rule="evenodd" clip-rule="evenodd" d="M-0.788309 37.9443C-0.95325 37.1131 -0.359095 37.0058 0.0261732 36.7436C4.0143 34.6415 8.0539 32.5131 12.042 30.411C13.1229 29.859 14.2022 29.1769 15.2566 28.5731C15.411 28.4942 15.6169 28.3891 15.7713 28.3102C16.2095 28.1518 16.8257 27.7064 17.0406 28.3813C17.229 29.0044 16.5569 29.0861 16.1451 29.2964C15.3981 29.6125 14.729 29.9542 14.0084 30.3222C12.1305 31.3466 10.2526 32.3711 8.37475 33.3955C7.01157 34.1571 5.67336 34.8405 4.31017 35.6021C2.89552 36.3899 1.50584 37.0996 0.0646985 37.8356C-0.114692 37.9926 -0.477987 37.9166 -0.788309 37.9443Z" fill="#5E87C5"/>
<path fill-rule="evenodd" clip-rule="evenodd" d="M0.734393 39.7824C0.938766 39.5473 1.11665 39.2603 1.374 39.1288C5.72241 36.8427 10.0708 34.5566 14.4192 32.2704C14.8825 32.0339 15.3707 31.7191 15.8074 31.4307C16.2441 31.1423 16.6559 30.932 17.1796 31.4492C17.2386 32.073 16.7489 32.2577 16.3372 32.468C12.5284 34.4131 8.79764 36.3838 4.9889 38.329C3.95951 38.8547 2.95661 39.4322 1.9522 39.8798C1.64338 40.0375 1.25511 40.0396 0.944785 40.0673C0.840342 39.9899 0.787367 39.8862 0.734393 39.7824Z" fill="#5E87C5"/>
</g>
<defs>
<clipPath id="clip0_42_1386">
<rect width="46.2922" height="58.0614" fill="white" transform="translate(-27 21.0547) rotate(-27.0535)"/>
</clipPath>
</defs>
</svg>
