<svg width="386" height="400" viewBox="0 0 386 400" fill="none" xmlns="http://www.w3.org/2000/svg">
<g clip-path="url(#clip0_42_538)">
<path d="M89.1343 81.9077C89.1343 81.9077 131.355 114.802 171.267 120.724C211.179 126.645 151.146 173.355 151.146 173.355L64.3955 131.579L89.1343 81.9077Z" fill="#9D4EDD"/>
<path d="M0.404491 139.145C-2.89402 136.513 -58.6388 124.671 -56 219.737C-53.3612 314.803 65.0552 376.974 160.052 341.447C249.772 308.224 164.34 194.079 164.34 194.079L0.404491 139.145Z" fill="#E0BDAF"/>
<path d="M14.2582 315.132C13.9284 315.132 13.9284 315.132 13.5985 315.132C-17.4074 296.382 -29.9418 268.421 -30.2716 268.092C-30.6015 267.763 -30.2716 267.105 -29.6119 266.777C-29.2821 266.448 -28.6224 266.777 -28.2925 267.434C-28.2925 267.763 -15.7582 295.395 14.9179 313.487C15.2478 313.816 15.5776 314.474 15.2478 314.803C14.9179 315.132 14.5881 315.132 14.2582 315.132Z" fill="#F2DBD6"/>
<path d="M79.7394 297.989C112.95 295.082 139.498 288.47 139.036 283.221C138.574 277.973 111.277 276.075 78.0663 278.983C44.8556 281.89 18.3075 288.502 18.7695 293.75C19.2315 298.999 46.5287 300.897 79.7394 297.989Z" fill="#E0B39D"/>
<path d="M276.819 377.961C274.84 379.276 154.445 373.026 151.806 370.395C150.816 369.408 150.816 363.816 151.806 355.592C153.125 340.789 161.702 315.461 166.319 300C166.319 300 208.54 302.961 212.169 305.263C215.797 307.566 256.369 341.776 256.369 341.776C256.369 341.776 271.872 347.697 277.479 356.908C279.128 359.539 279.788 362.5 280.118 365.132C280.778 371.382 278.469 377.303 276.819 377.961Z" fill="#EF6354"/>
<path d="M276.819 377.961C274.84 379.277 154.445 373.026 151.806 370.395C150.816 369.408 150.816 363.816 151.806 355.592L280.118 364.803C280.778 371.382 278.469 377.303 276.819 377.961Z" fill="white"/>
<path d="M242.185 331.25L206.891 328.289C206.561 328.289 206.231 327.96 205.901 327.632C205.901 327.303 205.901 326.645 206.231 326.645L223.384 315.46C223.713 315.132 224.373 315.46 224.703 315.789C225.033 316.118 225.033 316.776 224.373 317.105L209.53 326.645L241.855 329.276C242.515 329.276 242.845 329.934 242.845 330.263C243.175 330.921 242.845 331.25 242.185 331.25Z" fill="white"/>
<path d="M129.706 189.145C129.706 189.145 196.336 142.105 254.06 156.579C311.784 171.053 227.672 310.855 227.672 310.855L143.89 311.184L151.806 271.053L51.2015 270.724L95.7314 207.895L129.706 189.145Z" fill="#23273B"/>
<path d="M206.891 197.697C206.561 197.697 206.561 197.697 206.231 197.697C205.902 197.369 205.572 196.711 205.902 196.382C205.902 196.382 213.488 184.54 223.713 175.987C224.043 175.658 224.703 175.658 225.033 175.987C225.363 176.316 225.363 176.974 225.033 177.303C215.137 185.855 207.881 197.369 207.551 197.369C207.551 197.369 207.221 197.697 206.891 197.697Z" fill="#DDDDDD"/>
<path d="M14.9179 240.461C14.9179 240.461 -17.0776 122.04 9.97017 89.4739C26.7926 69.0791 57.7985 72.0396 78.5791 77.3028C91.4433 80.5923 101.669 90.7896 105.297 103.619L130.036 192.763L14.9179 240.461Z" fill="#9D4EDD"/>
<path d="M105.957 138.487C105.627 138.487 104.967 138.158 104.967 137.829C104.637 137.171 100.349 118.421 100.019 116.118C100.019 115.46 100.349 115.131 101.009 115.131C101.669 115.131 101.999 115.46 101.999 116.118C102.328 118.092 105.297 131.25 106.946 137.829C106.946 137.829 106.616 138.158 105.957 138.487C106.287 138.487 105.957 138.487 105.957 138.487Z" fill="white"/>
<path d="M66.3746 151.645C66.3746 151.645 91.1134 131.908 99.6895 131.908C108.596 131.579 125.748 142.105 125.088 144.079C124.428 146.382 105.957 143.092 105.957 143.092C105.957 143.092 109.915 163.487 108.596 167.434C107.276 171.382 94.7418 179.276 92.4328 179.934C90.1239 180.263 87.4851 172.368 87.4851 172.368C87.4851 172.368 79.8985 176.974 71.6522 176.316C63.406 175.658 58.7881 161.184 58.7881 161.184L66.3746 151.645Z" fill="#F79674"/>
<path d="M34.0493 57.5659L34.709 78.2896C34.709 78.2896 38.6672 84.2107 50.5418 84.8685C59.4478 85.5264 61.7567 82.237 61.7567 82.237L61.097 73.0264L59.7776 62.8291L38.0075 58.5528L34.0493 57.5659Z" fill="#F79674"/>
<path d="M38.0075 60.1973C38.0075 60.8552 38.3373 61.5131 38.6672 62.171C43.6149 72.0394 56.1493 73.6841 61.097 74.0131L59.4478 64.1446L38.0075 60.1973Z" fill="black"/>
<path d="M62.4164 19.0792C62.4164 19.0792 73.3015 43.4213 69.6731 57.2371C66.0448 71.0529 53.1806 69.0792 45.594 66.4476C38.0075 63.816 34.3791 59.2108 34.3791 59.2108C34.3791 59.2108 27.4522 61.5134 22.5045 55.2634C17.8866 48.6844 20.5254 41.1187 24.4836 39.4739C28.4418 37.8292 33.3896 40.4608 33.3896 40.4608L29.7612 33.5529C29.7612 33.5529 45.2642 -2.63134 62.4164 19.0792Z" fill="#F79674"/>
<path d="M61.4269 50.6578C60.7672 50.3288 60.4373 49.9999 60.4373 49.342C61.7567 44.7367 58.4582 40.1315 58.4582 40.1315C58.1284 39.8025 58.1284 39.1446 58.7881 38.8157C59.1179 38.4867 59.7776 38.4867 60.1075 39.1446C60.1075 39.4736 64.0657 44.7367 62.4164 49.9999C62.4164 50.3288 62.0866 50.6578 61.4269 50.6578Z" fill="black"/>
<path d="M32.7299 52.6314C32.4 52.6314 32.0702 52.6314 32.0702 52.3024L25.4732 45.3945C25.1433 45.0656 25.1433 44.4077 25.4732 44.0787C25.803 43.7498 26.4627 43.7498 26.7926 44.0787L33.3896 50.9866C33.7194 51.3156 33.7194 51.9735 33.3896 52.3024C33.0597 52.3024 32.7299 52.6314 32.7299 52.6314Z" fill="black"/>
<path d="M25.4731 50.6581C25.1433 50.6581 24.4836 50.3292 24.4836 50.0002C24.4836 49.3423 24.8134 49.0134 25.1433 49.0134L29.7612 48.3555C30.4209 48.3555 30.7507 48.6844 30.7507 49.0134C30.7507 49.6713 30.4209 50.0002 30.091 50.0002L25.4731 50.6581C25.803 50.6581 25.4731 50.6581 25.4731 50.6581Z" fill="black"/>
<path d="M50.212 41.4473C49.8821 41.4473 49.2224 41.1183 49.2224 40.4604L48.8925 36.1841C48.8925 35.5262 49.2224 35.1973 49.8821 35.1973C50.5418 35.1973 50.8717 35.5262 50.8717 36.1841L51.5314 40.7894C51.5314 40.7894 50.8717 41.4473 50.212 41.4473C50.5418 41.4473 50.5418 41.4473 50.212 41.4473Z" fill="black"/>
<path d="M64.0657 40.4603C63.7358 40.4603 63.0761 40.1313 63.0761 39.4735L62.4164 34.8682C62.4164 34.2103 62.7463 33.8813 63.0761 33.8813C63.7358 33.8813 64.0657 34.2103 64.0657 34.5392L64.7254 39.1445C65.0552 39.8024 64.7254 40.1313 64.0657 40.4603Z" fill="black"/>
<path d="M45.9239 32.8948H45.594C45.2642 32.5659 44.9343 31.908 45.2642 31.579C46.9134 28.2896 51.2015 28.9475 51.5313 29.2764C52.1911 29.2764 52.5209 29.9343 52.1911 30.2632C52.1911 30.9211 51.5314 31.2501 51.2015 30.9211C51.2015 30.9211 48.2328 30.2632 47.2433 32.2369C46.9134 32.5659 46.2537 32.8948 45.9239 32.8948Z" fill="black"/>
<path d="M59.4478 29.9343C59.1179 29.9343 59.1179 29.9343 58.7881 29.6053C58.4582 29.2764 58.1284 28.6185 58.4582 28.2896C59.1179 27.3027 60.1075 26.6448 61.097 26.6448C63.406 26.3159 65.3851 27.9606 65.3851 28.2896C66.0448 28.6185 66.0448 29.2764 65.7149 29.6053C65.3851 29.9343 64.7254 29.9343 64.3955 29.6053C64.0657 29.2764 62.7463 28.2896 61.4269 28.6185C60.7672 28.6185 60.4373 28.9474 60.1075 29.6053C60.1075 29.6053 59.7776 29.9343 59.4478 29.9343Z" fill="black"/>
<path d="M41.9657 243.092C41.6358 243.092 41.306 242.763 40.9761 242.434L38.0075 231.25C38.0075 230.921 38.0075 230.263 38.6672 230.263C39.3269 230.263 39.6567 230.592 39.6567 230.921L42.6254 242.105C42.9552 242.434 42.9552 242.763 41.9657 243.092C42.2955 243.092 42.2955 243.092 41.9657 243.092Z" fill="#534579"/>
<path d="M130.036 214.803C129.376 214.803 129.046 214.474 129.046 213.816L128.716 201.974C128.716 201.316 129.046 200.987 129.706 200.987C130.366 200.987 130.696 201.316 130.696 201.974L131.025 213.816C131.025 214.474 130.366 214.803 130.036 214.803Z" fill="#534579"/>
<path d="M120.14 222.368C119.481 222.368 119.151 222.039 119.151 221.381V208.881C119.151 208.223 119.481 207.895 120.14 207.895C120.8 207.895 121.13 208.223 121.13 208.881V221.381C121.13 222.039 120.47 222.368 120.14 222.368Z" fill="#534579"/>
<path d="M55.8194 57.5656C52.8508 57.5656 50.5418 55.2629 49.5522 53.9472C49.2224 53.6182 49.5522 52.9603 49.8821 52.6314C50.2119 52.3024 50.8717 52.6314 51.2015 52.9603C51.2015 52.9603 53.5105 56.5787 56.809 55.5919C57.4687 55.5919 57.7985 55.9208 58.1284 56.2498C58.1284 56.9077 57.7985 57.2366 57.4687 57.5656C56.809 57.5656 56.1493 57.5656 55.8194 57.5656Z" fill="black"/>
<path d="M386 332.237C385.01 334.539 284.406 400.329 280.778 400C279.458 400 276.16 395.395 271.872 388.158C264.285 375.329 256.039 350 250.431 334.868C250.431 334.868 286.055 312.171 290.343 311.842C294.961 311.513 347.737 315.131 347.737 315.131C347.737 315.131 363.57 310.855 373.466 314.802C376.434 316.118 378.743 317.763 380.393 319.737C385.01 324.671 386.66 330.592 386 332.237Z" fill="#EF6354"/>
<path d="M386 332.237C385.01 334.539 284.406 400.329 280.778 400C279.458 400 276.16 395.395 271.872 388.158L380.722 319.737C385.01 324.671 386.66 330.592 386 332.237Z" fill="white"/>
<path d="M303.208 333.882C302.878 333.882 302.878 333.882 302.548 333.553C302.218 333.224 302.218 332.895 302.218 332.566L309.475 313.158C309.805 312.5 310.134 312.5 310.794 312.5C311.454 312.829 311.454 313.158 311.454 313.816L305.187 330.263L332.894 313.158C333.224 312.829 333.884 313.158 334.213 313.487C334.543 313.816 334.213 314.474 333.884 314.803L303.867 333.224C303.537 333.882 303.208 333.882 303.208 333.882Z" fill="white"/>
<path d="M15.5776 240.461C15.5776 240.461 159.722 167.434 191.388 177.961C232.949 191.776 308.485 304.276 308.485 304.276L242.185 368.092C242.185 368.092 173.576 275.658 162.691 276.974C150.157 278.289 78.5791 308.224 53.1806 300.329C28.112 292.105 15.5776 240.461 15.5776 240.461Z" fill="#23273B"/>
<path d="M165.33 277.96H165C164.67 277.96 164.34 277.631 164.34 276.974C164.34 276.316 163.351 261.842 168.958 256.579C170.607 254.934 172.587 254.276 174.566 254.605C177.204 254.934 177.864 255.921 178.524 256.908C180.503 262.5 167.639 276.316 165.99 277.632C165.66 277.96 165.33 277.96 165.33 277.96ZM173.906 256.579C172.587 256.579 171.267 257.237 170.278 258.224C166.649 261.842 166.319 270.724 166.319 275C171.597 269.408 177.864 260.855 176.875 257.895C176.875 257.566 176.545 256.908 174.566 256.908C174.236 256.579 174.236 256.579 173.906 256.579Z" fill="#B0B0B0"/>
<path d="M94.4119 189.474L196.006 178.618L218.106 110.197L120.8 120.724C118.491 121.053 116.182 122.697 115.522 125L94.4119 189.474Z" fill="white"/>
<path d="M103.318 188.487L204.912 177.632L224.373 116.776C225.363 113.158 222.724 109.869 219.096 110.198L125.418 120.066L103.318 188.487Z" fill="#D1A58F"/>
<path d="M61.4269 201.316L204.582 186.184C206.891 185.855 208.54 183.881 208.21 181.579C207.881 179.276 205.902 177.631 203.593 177.96L60.4373 193.092C58.1284 193.421 56.4791 195.395 56.809 197.697C57.1388 200 59.1179 201.645 61.4269 201.316Z" fill="#BF8D7B"/>
<path d="M156.094 149.671C156.424 153.947 160.382 156.908 164.34 156.25C168.628 155.921 171.597 151.974 170.937 148.026C170.608 143.75 166.649 140.79 162.691 141.447C158.733 142.105 155.764 145.724 156.094 149.671Z" fill="white"/>
<path d="M52.1911 86.1841C42.6254 86.1841 34.0493 79.2762 34.0493 78.9473C33.7194 78.6183 33.7194 77.9604 34.0493 77.6315C34.3791 77.3025 35.0388 77.3025 35.3687 77.6315C35.3687 77.6315 49.8821 89.8025 61.4269 81.5788C61.7567 81.2499 62.4164 81.2499 62.7463 81.9078C63.0761 82.2367 63.0761 82.8946 62.4164 83.2236C59.1179 85.1973 55.4896 86.1841 52.1911 86.1841Z" fill="white"/>
<path d="M105.957 144.079H105.627L95.7314 138.158C95.4015 137.829 95.0717 137.171 95.4015 136.842C95.7314 136.513 96.3911 136.184 96.7209 136.513L106.616 142.105C106.946 142.434 107.276 143.092 106.946 143.421C106.616 143.75 106.287 144.079 105.957 144.079Z" fill="black"/>
<path d="M23.494 78.9473C23.494 78.9473 -65.5656 121.71 -47.7537 186.513C-28.2925 256.25 72.6418 201.974 72.6418 201.974L67.0343 146.71L13.9284 152.303L23.494 78.9473Z" fill="#9D4EDD"/>
<path d="M-3.88355 150.658C-4.21341 150.658 -4.87311 150.329 -4.87311 150C-4.87311 149.342 -4.54326 149.013 -4.21341 149.013C25.1433 143.092 58.1284 145.066 58.4582 145.066C59.1179 145.066 59.4478 145.395 59.4478 146.053C59.4478 146.711 59.1179 147.039 58.4582 147.039C58.4582 146.711 25.4732 144.737 -3.88355 150.658C-3.5537 150.658 -3.5537 150.658 -3.88355 150.658Z" fill="white"/>
<path d="M23.1642 146.381C18.5463 146.381 3.37315 146.052 1.06419 141.776C0.734341 141.118 0.404492 139.802 1.7239 138.487C2.71345 137.171 4.03285 136.513 5.35225 136.513C12.2791 135.526 23.8239 144.408 24.4836 144.737C24.8134 145.066 24.8134 145.395 24.8134 145.724C24.4836 146.381 23.8239 146.381 23.1642 146.381ZM6.3418 138.487C6.01195 138.487 5.68211 138.487 5.35225 138.487C4.3627 138.487 3.37315 139.145 2.71345 139.802C2.05374 140.46 2.3836 140.789 2.3836 141.118C3.37315 143.421 12.609 144.408 20.1955 144.408C17.2269 142.105 10.6299 138.487 6.3418 138.487Z" fill="white"/>
<path d="M17.5567 222.368C17.2269 222.368 16.5672 222.039 16.5672 221.71C16.5672 221.053 16.897 220.724 17.2269 220.724C17.5567 220.724 48.2328 214.474 67.0343 203.947C67.3642 203.618 68.0239 203.947 68.3537 204.276C68.6836 204.605 68.3537 205.263 68.0239 205.592C48.8925 215.789 18.2164 222.368 17.5567 222.368Z" fill="white"/>
<path d="M87.4851 173.026C87.1552 173.026 87.1552 173.026 86.8254 172.697C86.4955 172.368 86.4955 172.039 86.4955 171.71L89.1343 165.789C89.4642 165.46 89.7941 165.131 90.4538 165.131C90.7836 165.46 91.1134 165.789 91.1134 166.447L89.4642 170.066L92.7627 168.421C93.0926 168.092 93.7523 168.421 94.0821 168.75C94.412 169.079 94.0821 169.737 93.7523 170.066L88.1448 173.026C87.8149 173.026 87.8149 173.026 87.4851 173.026Z" fill="black"/>
<path d="M33.7194 40.7895L36.6881 44.7368C36.6881 44.7368 40.9761 37.8289 41.6358 31.9079C42.2955 25.9868 43.2851 19.7368 50.5418 17.1053C57.7985 14.4737 63.406 21.3816 63.406 21.3816C63.406 21.3816 59.4478 0 51.2015 0C42.9552 0 30.4209 10.5263 25.4732 17.4342C20.5254 24.3421 22.1747 30.9211 22.1747 30.9211C22.1747 30.9211 15.5776 33.5526 14.9179 36.8421C14.5881 40.1316 20.1955 49.3421 20.1955 49.3421C20.1955 49.3421 22.1747 36.1842 33.7194 40.7895Z" fill="#280659"/>
</g>
<defs>
<clipPath id="clip0_42_538">
<rect width="442" height="400" fill="white" transform="translate(-56)"/>
</clipPath>
</defs>
</svg>
