<svg width="220" height="134" viewBox="0 0 220 134" fill="none" xmlns="http://www.w3.org/2000/svg">
<path d="M146.184 71.3492V81.0611L204.419 131.239C210.486 136.5 219.787 132.049 219.787 124.36V18.3384C219.787 10.2451 210.486 6.19846 204.419 11.4591L146.184 61.6373V71.3492Z" fill="#35D967" fill-opacity="0.27"/>
<path d="M159.531 53.1392H133.244V89.1542H159.531V53.1392Z" fill="black"/>
<path d="M143.758 62.8513V72.5632L201.994 122.741C208.06 128.002 217.362 123.551 217.362 115.862V10.2451C217.362 2.15183 208.06 -1.8948 201.994 3.36582L143.758 53.544V62.8513Z" stroke="black" stroke-width="1.3547" stroke-miterlimit="10" stroke-linecap="round" stroke-linejoin="round"/>
<path d="M156.699 45.0459H130.412V81.0609H156.699V45.0459Z" stroke="black" stroke-width="1.3547" stroke-miterlimit="10" stroke-linecap="round" stroke-linejoin="round"/>
<path d="M115.853 119.908H29.713C15.5585 119.908 3.83057 108.173 3.83057 94.01V48.6877C3.83057 34.5245 15.5585 22.7893 29.713 22.7893H115.853C130.008 22.7893 141.736 34.5245 141.736 48.6877V94.01C141.736 108.173 130.008 119.908 115.853 119.908Z" fill="#C8F5D6"/>
<path d="M90.7794 71.349C90.7794 81.4656 82.691 89.1542 72.9851 89.1542C62.8748 89.1542 55.1909 81.0609 55.1909 71.349C55.1909 61.2324 63.2792 53.5438 72.9851 53.5438C82.691 53.1392 90.7794 61.2324 90.7794 71.349Z" fill="white"/>
<path d="M113.023 111.411H26.8824C12.728 111.411 1 99.6754 1 85.5122V40.1899C1 26.0267 12.728 14.2915 26.8824 14.2915H113.023C127.177 14.2915 138.905 26.0267 138.905 40.1899V85.5122C138.905 100.08 127.582 111.411 113.023 111.411Z" stroke="black" stroke-width="1.3547" stroke-miterlimit="10" stroke-linecap="round" stroke-linejoin="round"/>
<path d="M87.9487 62.8511C87.9487 72.9676 79.8603 80.6562 70.1544 80.6562C60.0441 80.6562 52.3604 72.563 52.3604 62.8511C52.3604 53.1392 60.4485 45.0459 70.1544 45.0459C79.8603 45.0459 87.9487 53.1392 87.9487 62.8511Z" stroke="black" stroke-width="1.3547" stroke-miterlimit="10" stroke-linecap="round" stroke-linejoin="round"/>
</svg>
