<svg width="22" height="23" viewBox="0 0 22 23" fill="none" xmlns="http://www.w3.org/2000/svg">
<path d="M18.1354 0C20.1961 0 21.8803 1.6128 21.9939 3.64515L22 3.86444L21.9993 18.1382C21.999 20.2724 20.2689 22.0027 18.1346 22.0027H3.86464C1.80388 22.0027 0.119814 20.3899 0.00611205 18.3575L0 18.1382L0.000713578 3.86447C0.000963289 1.73023 1.73111 0 3.86535 0H18.1354ZM10.1073 8.32369L1.78365 8.32488L1.78377 18.1381L1.79231 18.3292C1.88875 19.3889 2.7797 20.219 3.86457 20.219L10.1073 20.2182V8.32369ZM20.2147 15.4582L11.891 15.4594V20.2182L18.1345 20.219C19.2839 20.219 20.2155 19.2872 20.2156 18.138L20.2147 15.4582ZM18.1354 1.78365L11.891 1.78246V13.6758L20.2147 13.6746L20.2162 3.86454L20.2077 3.67341C20.1112 2.61369 19.2204 1.78365 18.1354 1.78365ZM10.1073 1.78246L3.86544 1.78365L3.6948 1.79056C2.62535 1.87744 1.78449 2.77285 1.78436 3.86461L1.78365 6.54123L10.1073 6.54005V1.78246Z" fill="#8127B9"/>
</svg>
