<svg width="27" height="16" viewBox="0 0 27 16" fill="none" xmlns="http://www.w3.org/2000/svg">
<path d="M2 6.96028C1.42578 6.96028 0.960281 7.42578 0.960281 8C0.960281 8.57422 1.42578 9.03972 2 9.03972V6.96028ZM25.9418 8.73519C26.3478 8.32916 26.3478 7.67084 25.9418 7.26481L19.325 0.648073C18.919 0.242037 18.2607 0.242037 17.8547 0.648073C17.4486 1.05411 17.4486 1.71242 17.8547 2.11846L23.7362 8L17.8547 13.8815C17.4486 14.2876 17.4486 14.9459 17.8547 15.3519C18.2607 15.758 18.919 15.758 19.325 15.3519L25.9418 8.73519ZM2 9.03972H25.2066V6.96028H2V9.03972Z" fill="#54B23C"/>
</svg>
