<svg width="71" height="71" viewBox="0 0 71 71" fill="none" xmlns="http://www.w3.org/2000/svg">
<circle cx="35.5" cy="35.5" r="35.5" fill="#00C9B7"/>
<path fill-rule="evenodd" clip-rule="evenodd" d="M45.4907 35.5996C47.9816 37.2905 49.7271 39.5814 49.7271 42.636V48.0905H56.9998V42.636C56.9998 38.6723 50.5089 36.3269 45.4907 35.5996Z" fill="white"/>
<path d="M31.5457 33.5455C35.5623 33.5455 38.8184 30.2894 38.8184 26.2727C38.8184 22.2561 35.5623 19 31.5457 19C27.5291 19 24.2729 22.2561 24.2729 26.2727C24.2729 30.2894 27.5291 33.5455 31.5457 33.5455Z" fill="white"/>
<path fill-rule="evenodd" clip-rule="evenodd" d="M42.4546 33.5455C46.4728 33.5455 49.7273 30.2909 49.7273 26.2727C49.7273 22.2545 46.4728 19 42.4546 19C41.6 19 40.8 19.1818 40.0364 19.4364C41.601 21.3713 42.4545 23.7844 42.4545 26.2727C42.4545 28.7611 41.601 31.1742 40.0364 33.1091C40.8 33.3637 41.6 33.5455 42.4546 33.5455ZM31.5455 35.3637C26.6909 35.3637 17 37.8 17 42.6364V48.0909H46.0909V42.6364C46.0909 37.8 36.4 35.3637 31.5455 35.3637Z" fill="white"/>
</svg>
