<svg width="71" height="71" viewBox="0 0 71 71" fill="none" xmlns="http://www.w3.org/2000/svg">
<circle cx="35.5" cy="35.5" r="35.5" fill="#FF7A96"/>
<path d="M16 25.6243C16 24.3979 16.4916 23.2217 17.3667 22.3544C18.2418 21.4872 19.4286 21 20.6662 21H48.6634C49.901 21 51.0878 21.4872 51.9629 22.3544C52.838 23.2217 53.3296 24.3979 53.3296 25.6243V31.8116C53.0868 31.6886 52.8365 31.5805 52.5803 31.4879L52.5537 31.4774L52.2404 31.3743L51.2578 31.081C51.0628 31.0225 50.8642 30.9766 50.6632 30.9436V25.6243C50.6632 25.0987 50.4525 24.5946 50.0775 24.2229C49.7024 23.8513 49.1938 23.6425 48.6634 23.6425H20.6662C20.1358 23.6425 19.6272 23.8513 19.2521 24.2229C18.8771 24.5946 18.6664 25.0987 18.6664 25.6243V42.8003C18.6664 43.3259 18.8771 43.83 19.2521 44.2017C19.6272 44.5733 20.1358 44.7821 20.6662 44.7821H26.6656V42.1397C26.6656 41.4388 26.9465 40.7667 27.4466 40.2712C27.9466 39.7756 28.6248 39.4972 29.332 39.4972H39.9976C40.7048 39.4972 41.383 39.7756 41.883 40.2712C42.3831 40.7667 42.664 41.4388 42.664 42.1397V43.301C42.0955 43.3001 41.5333 43.4192 41.015 43.6504C40.4966 43.8816 40.0338 44.2197 39.6576 44.6421L39.6256 44.6791L39.443 44.9063L37.6085 47.4246H20.6662C19.4286 47.4246 18.2418 46.9374 17.3667 46.0702C16.4916 45.2029 16 44.0267 16 42.8003V25.6243ZM39.9976 31.5698C39.9976 32.9715 39.4357 34.3157 38.4357 35.3068C37.4356 36.2979 36.0791 36.8548 34.6648 36.8548C33.2505 36.8548 31.894 36.2979 30.8939 35.3068C29.8938 34.3157 29.332 32.9715 29.332 31.5698C29.332 30.1682 29.8938 28.8239 30.8939 27.8328C31.894 26.8417 33.2505 26.2849 34.6648 26.2849C36.0791 26.2849 37.4356 26.8417 38.4357 27.8328C39.4357 28.8239 39.9976 30.1682 39.9976 31.5698ZM47.5782 34.2281C47.8733 33.6999 48.3422 33.2877 48.9067 33.0603C49.4711 32.8329 50.0971 32.804 50.6805 32.9783L51.6364 33.2637L51.8924 33.3482C52.6842 33.6353 53.3828 34.1297 53.9138 34.7787C54.4448 35.4278 54.7884 36.2073 54.9081 37.0344C55.3041 39.7667 54.4188 42.9615 52.2844 46.6252C50.1552 50.2798 47.8115 52.6342 45.2317 53.6648C44.4029 53.9958 43.4955 54.084 42.6175 53.9189C41.7395 53.7538 40.9278 53.3423 40.2789 52.7333L39.5563 52.0542L39.3937 51.8877C38.9918 51.4384 38.7563 50.8668 38.7261 50.2671C38.6958 49.6675 38.8724 49.0755 39.227 48.5886L41.0362 46.1047L41.1575 45.9541C41.4116 45.6687 41.7432 45.4619 42.1127 45.3584C42.4822 45.2548 42.874 45.2589 43.2413 45.3701L45.9757 46.1985L46.0463 46.2117H46.1037C46.4303 46.176 47.0942 45.522 47.9101 44.1215C48.8167 42.5651 49.0034 41.6548 48.7541 41.4196L47.3635 40.1354L47.1862 39.9596C46.7436 39.4842 46.4517 38.8904 46.3469 38.2519C46.2421 37.6134 46.3291 36.9584 46.5969 36.3685L47.4795 34.425L47.5782 34.2281Z" fill="white"/>
</svg>
