<svg width="21" height="17" viewBox="0 0 21 17" fill="none" xmlns="http://www.w3.org/2000/svg">
<path d="M7.00215 8.4995C7.55562 8.4995 8.0043 8.9482 8.0043 9.5017C8.0043 10.0552 7.55562 10.5038 7.00215 10.5038C6.44868 10.5038 6 10.0552 6 9.5017C6 8.9482 6.44868 8.4995 7.00215 8.4995ZM10.5 1.3537V7.4995L10.5005 8.0045L17.942 8.0035L16.2196 6.27977C15.9534 6.01346 15.9292 5.59679 16.1471 5.30321L16.2198 5.21911C16.4861 4.95289 16.9027 4.92875 17.1963 5.14666L17.2804 5.21929L20.277 8.2169C20.543 8.483 20.5674 8.8992 20.35 9.1928L20.2775 9.2769L17.2809 12.2803C16.9884 12.5736 16.5135 12.5741 16.2203 12.2816C15.9537 12.0156 15.929 11.599 16.1465 11.3051L16.2191 11.2209L17.932 9.5035L10.5005 9.5045L10.5 16.2495C10.5 16.7159 10.0788 17.0692 9.6196 16.9881L1.11955 15.4868C0.76121 15.4235 0.5 15.1121 0.5 14.7482V2.74953C0.5 2.38222 0.76601 2.06896 1.12847 2.00944L9.6285 0.613608C10.0851 0.538628 10.5 0.890968 10.5 1.3537ZM9 2.2369L2 3.38641V14.1191L9 15.3555V2.2369ZM11.5 15.5008L12.2652 15.501L12.367 15.4941C12.7335 15.4443 13.0158 15.1299 13.0152 14.7497L13.008 10.4995H11.5V15.5008ZM11.502 6.99953L11.5 5.72487V1.99952L12.2453 1.99953C12.6245 1.99953 12.9381 2.28105 12.9883 2.64664L12.9953 2.74829L13.002 6.99953H11.502Z" fill="#4A35AB"/>
</svg>
