<svg width="45" height="48" viewBox="0 0 45 48" fill="none" xmlns="http://www.w3.org/2000/svg">
<path d="M32.0808 0.666504L42.7063 0.667717L42.9403 0.700197L43.1709 0.76462L43.3116 0.824237C43.4964 0.905577 43.6695 1.02385 43.8219 1.17601L43.9168 1.27877L44.0183 1.41032L44.1448 1.6206L44.2351 1.83135L44.2797 1.98087L44.3114 2.1302L44.3333 2.35L44.3343 12.9256C44.3343 13.8921 43.551 14.6756 42.5843 14.6756C41.6985 14.6756 40.9663 14.0172 40.8504 13.163L40.8343 12.9256L40.8333 6.6375L25.8083 21.6658C25.1869 22.2872 24.2146 22.3436 23.5296 21.8354L23.3333 21.666L16.2626 14.8747L2.98744 28.1499C2.30403 28.8333 1.19597 28.8333 0.512564 28.1499C-0.108732 27.5285 -0.165199 26.5565 0.343117 25.8714L0.512564 25.6749L15.0252 11.1624C15.6464 10.5411 16.6187 10.4847 17.3038 10.993L17.5 11.1624L24.5707 17.9536L38.3553 4.1665H32.0808C31.1948 4.1665 30.4626 3.50815 30.3469 2.65397L30.3308 2.4165C30.3308 1.53054 30.9892 0.798361 31.8435 0.682487L32.0808 0.666504ZM1.75 35.6665C2.71649 35.6665 3.5 36.45 3.5 37.4165V45.5832C3.5 46.5496 2.71649 47.3332 1.75 47.3332C0.783511 47.3332 7.8668e-07 46.5496 7.8668e-07 45.5832V37.4165C7.8668e-07 36.45 0.783511 35.6665 1.75 35.6665ZM15.1667 28.0832C15.1667 27.1167 14.3832 26.3332 13.4167 26.3332C12.4502 26.3332 11.6667 27.1167 11.6667 28.0832V45.5832C11.6667 46.5496 12.4502 47.3332 13.4167 47.3332C14.3832 47.3332 15.1667 46.5496 15.1667 45.5832V28.0832ZM25.0833 30.9998C26.0498 30.9998 26.8333 31.7834 26.8333 32.7498V45.5832C26.8333 46.5496 26.0498 47.3332 25.0833 47.3332C24.1169 47.3332 23.3333 46.5496 23.3333 45.5832V32.7498C23.3333 31.7834 24.1169 30.9998 25.0833 30.9998ZM38.5 21.0832C38.5 20.1167 37.7165 19.3332 36.75 19.3332C35.7835 19.3332 35 20.1167 35 21.0832V45.5832C35 46.5496 35.7835 47.3332 36.75 47.3332C37.7165 47.3332 38.5 46.5496 38.5 45.5832V21.0832Z" fill="#DD4B3D"/>
</svg>
