<svg width="17" height="14" viewBox="0 0 17 14" fill="none" xmlns="http://www.w3.org/2000/svg">
<path d="M15.1618 3.83667C15.1715 3.97772 15.1715 4.11877 15.1715 4.26113C15.1715 8.59864 11.8695 13.6011 5.83153 13.6011V13.5985C4.04791 13.6011 2.30133 13.0902 0.799805 12.1269C1.05916 12.1581 1.31981 12.1737 1.58112 12.1743C3.05924 12.1756 4.49511 11.6797 5.65798 10.7664C4.25331 10.7398 3.02154 9.82391 2.59123 8.48684C3.08329 8.58174 3.5903 8.56224 4.07326 8.43029C2.54183 8.12089 1.44006 6.77536 1.44006 5.21274C1.44006 5.19844 1.44006 5.18479 1.44006 5.17114C1.89637 5.42529 2.40728 5.56635 2.92989 5.58195C1.48752 4.61798 1.04291 2.69915 1.91392 1.19893C3.58055 3.24971 6.03954 4.49643 8.67923 4.62838C8.41467 3.48826 8.77608 2.29354 9.62889 1.49208C10.951 0.249263 13.0304 0.312964 14.2732 1.63443C15.0084 1.48948 15.713 1.21973 16.3578 0.837522C16.1127 1.59738 15.5999 2.24284 14.9148 2.653C15.5654 2.5763 16.2011 2.4021 16.7998 2.13624C16.3591 2.79665 15.804 3.37191 15.1618 3.83667Z" fill="#626262"/>
</svg>
